<svg width="25" height="25" viewBox="0 0 13 15" fill="none" xmlns="http://www.w3.org/2000/svg">
<path fill-rule="evenodd" clip-rule="evenodd" d="M4.9714 0.520787C4.97997 0.516039 4.98673 0.509769 4.99413 0.502893C5.01219 0.486129 5.03412 0.465768 5.09574 0.455114C5.11322 0.452092 5.12989 0.449015 5.14624 0.445997C5.2114 0.433967 5.2715 0.422871 5.35803 0.419887C5.57737 0.412324 5.66234 0.411046 5.7796 0.438106C5.82264 0.448037 5.97099 0.489618 6.049 0.541721C6.06746 0.554052 6.08605 0.565745 6.10467 0.577459C6.16267 0.613952 6.221 0.650652 6.27695 0.707506C6.35102 0.782762 6.39621 0.83653 6.44274 0.914737L6.4476 0.922906C6.49169 0.996957 6.51206 1.03116 6.51514 1.08052L6.51622 1.09092C6.51879 1.11338 6.52422 1.16063 6.51514 1.20486C6.50974 1.23117 6.4963 1.26103 6.48158 1.29374C6.46794 1.32402 6.45321 1.35675 6.44274 1.39137C6.40611 1.51249 6.35257 1.65083 6.29404 1.80209L6.26059 1.88872C6.16603 2.13456 6.03637 2.39738 5.92577 2.62157L5.92577 2.62158C5.87516 2.72416 5.82855 2.81865 5.79112 2.89971C5.63564 2.83698 5.47196 2.77062 5.30782 2.70408L5.30659 2.70358L5.3064 2.7035L5.30624 2.70344L5.30611 2.70338L5.3059 2.7033C4.98883 2.57475 4.67018 2.44557 4.40587 2.34057C4.44063 2.22604 4.46785 2.08579 4.49692 1.93599L4.49692 1.93598L4.49692 1.93596C4.54212 1.70306 4.59179 1.44708 4.68128 1.22875C4.71853 1.13785 4.74317 1.04862 4.76595 0.966114L4.76595 0.966111C4.79061 0.876791 4.8131 0.795358 4.84706 0.728229C4.87985 0.663432 4.91571 0.599936 4.93976 0.563393C4.95597 0.538777 4.96604 0.527113 4.96977 0.522795L4.96977 0.522794L4.9714 0.520787ZM6.87575 1.08319C6.86312 0.978735 6.81931 0.876073 6.76447 0.783899C6.7035 0.681426 6.62316 0.582307 6.53662 0.494369C6.44992 0.406279 6.35428 0.326634 6.26059 0.264052C6.16892 0.202825 6.07051 0.152128 5.97885 0.130975C5.82671 0.0958654 5.57942 0.0805115 5.34803 0.0884904C5.23091 0.0925291 5.11325 0.10268 5.00938 0.120638C4.90942 0.137919 4.80735 0.164789 4.73183 0.210102C4.68 0.2412 4.6395 0.296621 4.61118 0.339636C4.57854 0.389223 4.54408 0.451402 4.50897 0.520787C4.43853 0.660016 4.35978 0.839731 4.28109 1.03172C4.12657 1.40872 3.96828 1.84287 3.86722 2.13467C3.84523 2.12714 3.82661 2.12111 3.81167 2.11672C3.45938 2.0131 2.72111 2.00633 2.50513 2.11672C1.57259 2.59335 0.930175 5.41168 0.971622 5.70181C0.994406 5.8613 1.88177 7.31096 2.6969 8.64258L2.69693 8.64264L2.69696 8.64269L2.697 8.64276L2.69701 8.64277L2.69702 8.64278L2.69703 8.6428L2.69705 8.64284C3.3646 9.73338 3.98365 10.7447 4.03963 10.9033C4.1391 11.1851 3.66661 13.5075 3.41794 14.6335H4.51626C4.51626 14.6335 5.00981 11.3385 4.93072 10.8411C4.90379 10.6718 4.52471 10.2069 4.03741 9.60939C3.0935 8.45192 1.74352 6.79651 1.76009 5.82615C1.78342 4.45939 2.36007 3.06998 2.71236 2.88347C2.88071 2.79435 3.16135 2.67653 3.35478 2.65552C3.72948 2.6148 3.90647 2.64791 4.26659 2.75913C5.19867 3.04701 6.35962 3.44299 6.50469 3.77456C6.55692 3.89397 6.54457 3.94306 6.52204 4.03254C6.5166 4.05418 6.51055 4.07819 6.50469 4.10613C6.44569 4.38704 6.13266 4.45842 6.13266 4.45842L5.57313 4.62421L3.70707 3.98179L4.03963 4.87288L3.25116 5.41169C3.25116 5.41169 4.4718 5.67497 5.15867 6.11627L5.27273 6.18925C5.62358 6.41325 5.84959 6.55755 6.23627 6.94519C6.77662 7.48687 6.94029 7.67919 7.08592 8.43725C7.21794 9.12448 7.35532 10.3023 7.35532 10.3023L8.24641 8.81027C8.24641 8.81027 8.45173 8.46276 8.53654 8.29219C8.7428 7.87737 9.40691 7.79484 9.40691 7.79484H10.9404L11.8937 6.63435L11.6647 7.75339L10.9404 9.5563L9.24112 11.297L10.298 11.0069L10.7332 14.5506L11.1684 14.6335C10.899 13.4937 10.8078 10.8204 11.1062 10.4888C11.341 10.2279 11.4526 9.88495 11.591 9.45983L11.591 9.45981L11.591 9.45976C11.6725 9.20954 11.7632 8.93087 11.8937 8.62376C12.1751 7.96158 12.3146 6.16979 12.3494 5.35304C12.4314 5.12072 12.5095 4.89495 12.5306 4.82547C12.5519 4.75479 12.5695 4.68901 12.5813 4.63153C12.5926 4.5764 12.6006 4.51979 12.5976 4.47115C12.591 4.36558 12.5479 4.26108 12.4926 4.16815C12.4364 4.07378 12.3624 3.9825 12.2827 3.90151C12.2028 3.82039 12.1147 3.74704 12.0284 3.68941C11.944 3.63303 11.8533 3.58634 11.7689 3.56686C11.6287 3.53452 11.4009 3.52038 11.1878 3.52773C11.0799 3.53145 10.9715 3.5408 10.8758 3.55734C10.8566 3.56065 10.8374 3.56434 10.8183 3.5685C10.8414 3.49206 10.8604 3.42092 10.8731 3.35872C10.8854 3.29886 10.8941 3.23739 10.8908 3.18457C10.8836 3.06993 10.8368 2.95646 10.7768 2.85555C10.7158 2.75308 10.6355 2.65396 10.5489 2.56602C10.4622 2.47793 10.3666 2.39829 10.2729 2.33571C10.1812 2.27448 10.0828 2.22378 9.99117 2.20263C9.83903 2.16752 9.59174 2.15216 9.36036 2.16014C9.24323 2.16418 9.12558 2.17433 9.0217 2.19229C8.98833 2.19806 8.95473 2.2049 8.92195 2.21314L8.92509 2.19826C8.93737 2.1384 8.94606 2.07693 8.94276 2.02411C8.93559 1.90947 8.88878 1.796 8.82874 1.69509C8.76777 1.59262 8.68743 1.4935 8.60088 1.40556C8.51419 1.31747 8.41855 1.23783 8.32485 1.17524C8.23319 1.11402 8.13478 1.06332 8.04312 1.04217C7.89098 1.00706 7.64369 0.991704 7.4123 0.999683C7.29518 1.00372 7.17752 1.01387 7.07365 1.03183C7.00565 1.04359 6.93668 1.05978 6.87575 1.08319ZM10.1966 5.15503C10.0741 5.44834 9.93894 5.77063 9.80766 6.08274C9.80737 6.12491 9.7982 6.17866 9.77992 6.24061C9.50289 7.17944 10.2203 7.52389 10.7691 7.35036C11.0944 6.99337 11.7338 5.90369 11.8514 5.59814C11.8805 5.52249 11.9329 5.40962 11.9858 5.29584L11.9858 5.29583C12.0521 5.15299 12.1192 5.00876 12.1415 4.935C12.15 4.90699 12.1712 4.8481 12.1937 4.7859C12.2244 4.70087 12.2574 4.60965 12.2629 4.58271C12.2714 4.54129 12.2661 4.48996 12.2638 4.46754L12.2629 4.45837C12.2624 4.45003 12.2622 4.44174 12.262 4.43335V4.43331C12.2612 4.39433 12.2603 4.35302 12.2244 4.29258C12.2125 4.27265 12.2023 4.25346 12.1923 4.23466C12.1662 4.18553 12.1415 4.13905 12.0922 4.08892C12.0241 4.01976 11.9628 3.97258 11.8928 3.92584C11.8334 3.88617 11.7577 3.87157 11.7108 3.86253L11.6991 3.86024L11.6856 3.8574L11.6638 3.85233C11.5656 3.82942 11.4801 3.80946 11.2918 3.81595C11.2597 3.81706 11.2264 3.81718 11.1935 3.8173C11.1242 3.81755 11.0561 3.81779 11.0017 3.8272C10.9217 3.84103 10.8566 3.87812 10.8566 3.87812C10.8566 3.87812 10.7928 3.93215 10.7738 3.96102C10.761 3.98042 10.7523 4.00013 10.7415 4.02478L10.7415 4.02481L10.7414 4.02482C10.7335 4.04292 10.7244 4.06367 10.7116 4.08892L10.7028 4.1063C10.6445 4.2213 10.577 4.35462 10.509 4.52054C10.4409 4.68657 10.3503 4.86012 10.2641 5.02508L10.2641 5.02509L10.2641 5.02513C10.2411 5.06914 10.2184 5.11254 10.1966 5.15503ZM10.2558 3.98171C10.1488 4.25969 9.41584 5.86826 9.00797 6.76121C8.43283 7.0837 7.64811 6.6583 7.58663 5.90479C7.84317 5.25433 8.37669 3.95021 8.50117 3.64651C8.57876 3.45719 8.65414 3.28565 8.71948 3.15652C8.75226 3.09172 8.7811 3.04044 8.80515 3.0039C8.82136 2.97928 8.83143 2.96762 8.83516 2.9633L8.83679 2.96129C8.84663 2.95584 8.87595 2.90776 8.91388 2.84556C8.98958 2.72144 9.09956 2.5411 9.15744 2.53109C9.20925 2.52214 9.27103 2.52515 9.33536 2.52828C9.37928 2.53041 9.42438 2.53261 9.46829 2.53109C9.63748 2.52526 9.72249 2.54931 9.80633 2.57304C9.83119 2.58007 9.85594 2.58708 9.88275 2.59326C9.92579 2.6032 10.012 2.64478 10.09 2.69688L10.1238 2.71919C10.1839 2.7587 10.2346 2.79197 10.2972 2.85555C10.3483 2.90745 10.3659 2.94266 10.3872 2.98517C10.3968 3.0043 10.4071 3.0249 10.4216 3.04917C10.4606 3.11474 10.4613 3.14997 10.4621 3.18884V3.18888C10.4623 3.19729 10.4624 3.20586 10.463 3.21496C10.4631 3.21648 10.4633 3.2183 10.4636 3.22041C10.4638 3.22197 10.4641 3.22369 10.4643 3.22556L10.4643 3.22565L10.4644 3.22568C10.467 3.24371 10.4718 3.27589 10.463 3.31857C10.4604 3.33108 10.4579 3.34438 10.4553 3.35842C10.4473 3.40125 10.438 3.45085 10.4216 3.50508C10.378 3.64897 10.327 3.79644 10.2558 3.98171ZM5.96701 5.74415C6.73869 5.93013 7.11051 5.63966 7.33374 5.05934C7.36448 4.97941 7.57658 4.50926 7.81134 3.98891L7.81136 3.98886C8.12075 3.30305 8.46949 2.53004 8.49423 2.44823C8.50412 2.41554 8.5231 2.36743 8.54186 2.31991C8.5644 2.26278 8.58662 2.20649 8.59229 2.17883C8.6018 2.1325 8.5954 2.05982 8.59302 2.03287L8.59229 2.02411C8.58993 1.98636 8.57478 1.96274 8.54791 1.92087C8.53838 1.90602 8.52738 1.88888 8.51495 1.86799C8.47497 1.80079 8.45127 1.77698 8.39841 1.72387L8.36989 1.69509C8.29598 1.61999 8.23863 1.56644 8.16266 1.5157C8.08465 1.46359 7.99846 1.42201 7.95543 1.41208C7.94054 1.40865 7.92529 1.40496 7.90955 1.40115L7.90954 1.40115L7.90949 1.40114C7.80129 1.37498 7.67025 1.34331 7.4788 1.34991C7.43442 1.35144 7.39231 1.34918 7.35206 1.34703L7.35206 1.34702C7.29415 1.34392 7.2401 1.34102 7.18867 1.34991C7.10178 1.36493 7.06434 1.41208 7.06434 1.41208C7.06434 1.41208 7.0228 1.44291 7.00217 1.47425C6.99608 1.4835 6.98976 1.49256 6.9832 1.50197C6.96383 1.52975 6.94228 1.56067 6.91779 1.60906C6.88086 1.68206 6.85135 1.76761 6.81867 1.86238L6.81866 1.86239L6.81866 1.86241C6.79352 1.9353 6.7665 2.01365 6.73277 2.09594C6.62833 2.35074 6.53391 2.64886 6.45295 2.90448L6.45294 2.9045C6.427 2.9864 6.40244 3.06394 6.37938 3.13429C6.5846 3.21443 6.73055 3.2683 6.77507 3.27721C6.94086 3.31037 7.04829 3.43751 7.10664 3.67095C7.14809 3.83673 6.97402 4.29264 6.77507 4.45842C6.5264 4.66565 5.84254 4.99722 5.40735 4.87288C5.0592 4.77341 4.43337 4.55513 4.16397 4.45842C4.24686 4.49987 4.4904 4.7444 4.39093 4.9765C4.30354 5.18041 4.23717 5.20198 4.10055 5.24637C4.08167 5.2525 4.06144 5.25907 4.03963 5.26662C4.28678 5.26662 4.65349 5.28997 4.95144 5.37007L5.15867 4.87288L5.51097 4.93505C5.51097 4.93505 5.43847 5.50703 5.82181 5.66036C5.84926 5.67134 5.88107 5.69105 5.92573 5.71871L5.92574 5.71872L5.92574 5.71872L5.92576 5.71873L5.92577 5.71873L5.92577 5.71874L5.96701 5.74415ZM7.74906 14.6211H7.93557C7.97701 14.5298 8.08592 12.4697 7.97702 12.3331L7.54974 11.9601C7.60089 12.0243 7.61878 12.5864 7.63764 13.1787C7.65841 13.8308 7.68033 14.5195 7.74906 14.6211ZM7.22315 14.6418H7.03664C6.90548 14.448 7.26459 12.3539 7.26459 12.3539C7.26459 12.3539 7.26459 14.5505 7.22315 14.6418Z" fill="#E7E8EB"/>
<path d="M4.99413 0.502893L5.02815 0.539534L5.02815 0.539534L4.99413 0.502893ZM4.9714 0.520787L4.94718 0.477046L4.9387 0.481739L4.9326 0.489257L4.9714 0.520787ZM5.09574 0.455114L5.10426 0.504383V0.504383L5.09574 0.455114ZM5.14624 0.445997L5.15531 0.495166L5.14624 0.445997ZM5.35803 0.419887L5.35631 0.369917L5.35803 0.419887ZM5.7796 0.438106L5.76836 0.486825L5.7796 0.438106ZM6.049 0.541721L6.02123 0.583299L6.049 0.541721ZM6.10467 0.577459L6.07804 0.61978V0.61978L6.10467 0.577459ZM6.27695 0.707506L6.31259 0.672435L6.31259 0.672434L6.27695 0.707506ZM6.44274 0.914737L6.39977 0.940303L6.39978 0.940313L6.44274 0.914737ZM6.4476 0.922906L6.40464 0.948482L6.40464 0.948486L6.4476 0.922906ZM6.51514 1.08052L6.4652 1.08364L6.46541 1.08566L6.51514 1.08052ZM6.51622 1.09092L6.46648 1.09606L6.46654 1.09662L6.51622 1.09092ZM6.51514 1.20486L6.56412 1.21491L6.56412 1.21491L6.51514 1.20486ZM6.48158 1.29374L6.52717 1.31426V1.31426L6.48158 1.29374ZM6.44274 1.39137L6.39488 1.37689V1.37689L6.44274 1.39137ZM6.29404 1.80209L6.24741 1.78405L6.2474 1.78408L6.29404 1.80209ZM6.26059 1.88872L6.21394 1.87071L6.21392 1.87077L6.26059 1.88872ZM5.92577 2.62157L5.88089 2.59943L5.88008 2.60126L5.92577 2.62157ZM5.92577 2.62158L5.97064 2.64372L5.97146 2.64189L5.92577 2.62158ZM5.79112 2.89971L5.77241 2.94608L5.81655 2.96389L5.83651 2.92068L5.79112 2.89971ZM5.30782 2.70408L5.3266 2.65774L5.32659 2.65774L5.30782 2.70408ZM5.30659 2.70358L5.28769 2.74987L5.28782 2.74992L5.30659 2.70358ZM5.3064 2.7035L5.32531 2.65722L5.32526 2.6572L5.3064 2.7035ZM5.30624 2.70344L5.3251 2.65713L5.32503 2.6571L5.30624 2.70344ZM5.30611 2.70338L5.3249 2.65705L5.32489 2.65705L5.30611 2.70338ZM5.3059 2.7033L5.28711 2.74964L5.28711 2.74964L5.3059 2.7033ZM4.40587 2.34057L4.35802 2.32604L4.34466 2.37005L4.38741 2.38703L4.40587 2.34057ZM4.49692 1.93599L4.54603 1.94552L4.54629 1.94389L4.49692 1.93599ZM4.49692 1.93598L4.44775 1.92683L4.44755 1.92808L4.49692 1.93598ZM4.49692 1.93596L4.44784 1.92644L4.44777 1.92682L4.49692 1.93596ZM4.68128 1.22875L4.63501 1.20978V1.20978L4.68128 1.22875ZM4.76595 0.966114L4.81427 0.979456L4.81498 0.97592L4.76595 0.966114ZM4.76595 0.966111L4.71763 0.952769L4.71692 0.956305L4.76595 0.966111ZM4.84706 0.728229L4.80245 0.705656V0.705656L4.84706 0.728229ZM4.93976 0.563393L4.98153 0.590883V0.590883L4.93976 0.563393ZM4.96977 0.522795L4.93239 0.489574L4.93193 0.490113L4.96977 0.522795ZM4.96977 0.522794L5.00718 0.556045L5.00858 0.554323L4.96977 0.522794ZM6.76447 0.783899L6.80744 0.758333V0.758333L6.76447 0.783899ZM6.87575 1.08319L6.82612 1.0892L6.83382 1.15288L6.89369 1.12986L6.87575 1.08319ZM6.53662 0.494369L6.50098 0.529441L6.53662 0.494369ZM6.26059 0.264052L6.28836 0.222474L6.28836 0.222474L6.26059 0.264052ZM5.97885 0.130975L5.99009 0.0822553L5.99009 0.0822552L5.97885 0.130975ZM5.34803 0.0884904L5.34976 0.138461L5.34803 0.0884904ZM5.00938 0.120638L5.0179 0.169907L5.00938 0.120638ZM4.73183 0.210102L4.7061 0.167227V0.167227L4.73183 0.210102ZM4.61118 0.339636L4.65295 0.367126V0.367126L4.61118 0.339636ZM4.50897 0.520787L4.55359 0.54336V0.54336L4.50897 0.520787ZM4.28109 1.03172L4.23483 1.01276L4.28109 1.03172ZM3.86722 2.13467L3.85102 2.18197L3.89816 2.19811L3.91446 2.15103L3.86722 2.13467ZM3.81167 2.11672L3.79757 2.16468L3.81167 2.11672ZM2.50513 2.11672L2.48237 2.07219L2.50513 2.11672ZM0.971622 5.70181L1.02112 5.69474H1.02112L0.971622 5.70181ZM2.6969 8.64258L2.73977 8.61686L2.73954 8.61648L2.6969 8.64258ZM2.69693 8.64264L2.65405 8.66837L2.65453 8.66914L2.69693 8.64264ZM2.697 8.64276L2.65456 8.66928L2.6558 8.67108L2.697 8.64276ZM2.69701 8.64277L2.73945 8.61624L2.73821 8.61444L2.69701 8.64277ZM2.69702 8.64278L2.6546 8.66929L2.65542 8.67052L2.69702 8.64278ZM2.69703 8.6428L2.73964 8.61658L2.73863 8.61506L2.69703 8.6428ZM2.69705 8.64284L2.7397 8.61673L2.73964 8.61663L2.69705 8.64284ZM4.03963 10.9033L4.08678 10.8867L4.03963 10.9033ZM3.41794 14.6335L3.36911 14.6227L3.35569 14.6835H3.41794V14.6335ZM4.51626 14.6335V14.6835H4.55933L4.56571 14.6409L4.51626 14.6335ZM4.93072 10.8411L4.9801 10.8333L4.93072 10.8411ZM4.03741 9.60939L3.99866 9.64099L4.03741 9.60939ZM1.76009 5.82615L1.7101 5.82529L1.76009 5.82615ZM2.71236 2.88347L2.68897 2.83928L2.71236 2.88347ZM3.35478 2.65552L3.36018 2.70522L3.35478 2.65552ZM4.26659 2.75913L4.28135 2.71136L4.26659 2.75913ZM6.50469 3.77456L6.55049 3.75452L6.50469 3.77456ZM6.52204 4.03254L6.57053 4.04474V4.04474L6.52204 4.03254ZM6.50469 4.10613L6.55362 4.11641V4.11641L6.50469 4.10613ZM6.13266 4.45842L6.12152 4.40958L6.11845 4.41048L6.13266 4.45842ZM5.57313 4.62421L5.55686 4.67149L5.57199 4.6767L5.58734 4.67215L5.57313 4.62421ZM3.70707 3.98179L3.72335 3.93452L3.62319 3.90004L3.66023 3.99928L3.70707 3.98179ZM4.03963 4.87288L4.06784 4.91417L4.10016 4.89208L4.08647 4.8554L4.03963 4.87288ZM3.25116 5.41169L3.22295 5.3704L3.12691 5.43603L3.24062 5.46056L3.25116 5.41169ZM5.15867 6.11627L5.13165 6.15833L5.13172 6.15838L5.15867 6.11627ZM5.27273 6.18925L5.24578 6.23136L5.24582 6.23139L5.27273 6.18925ZM6.23627 6.94519L6.27167 6.90988L6.23627 6.94519ZM7.08592 8.43725L7.03682 8.44669L7.08592 8.43725ZM7.35532 10.3023L7.30566 10.3081L7.32272 10.4544L7.39825 10.328L7.35532 10.3023ZM8.24641 8.81027L8.28934 8.83591L8.28946 8.8357L8.24641 8.81027ZM8.53654 8.29219L8.49177 8.26993L8.53654 8.29219ZM9.40691 7.79484V7.74446L9.40074 7.74522L9.40691 7.79484ZM10.9404 7.79484V7.84484H10.964L10.979 7.82658L10.9404 7.79484ZM11.8937 6.63435L11.9427 6.64437L11.855 6.60261L11.8937 6.63435ZM11.6647 7.75339L11.7119 7.77234L11.7137 7.76341L11.6647 7.75339ZM10.9404 9.5563L10.9762 9.59123L10.9831 9.58414L10.9868 9.57494L10.9404 9.5563ZM9.24112 11.297L9.20534 11.2621L9.07652 11.3941L9.25436 11.3453L9.24112 11.297ZM10.298 11.0069L10.3476 11.0008L10.3406 10.9434L10.2848 10.9587L10.298 11.0069ZM10.7332 14.5506L10.6836 14.5567L10.688 14.5929L10.7238 14.5997L10.7332 14.5506ZM11.1684 14.6335L11.159 14.6826L11.2348 14.697L11.217 14.622L11.1684 14.6335ZM11.1062 10.4888L11.1434 10.5223L11.1062 10.4888ZM11.591 9.45983L11.6386 9.47532L11.6391 9.47357L11.591 9.45983ZM11.591 9.45981L11.5437 9.44327L11.5429 9.44608L11.591 9.45981ZM11.591 9.45976L11.6382 9.47628L11.6386 9.47523L11.591 9.45976ZM11.8937 8.62376L11.9397 8.64332V8.64332L11.8937 8.62376ZM12.3494 5.35304L12.3023 5.3364L12.2998 5.34344L12.2995 5.35091L12.3494 5.35304ZM12.5306 4.82547L12.5784 4.83995L12.5784 4.83995L12.5306 4.82547ZM12.5813 4.63153L12.5323 4.62147L12.5813 4.63153ZM12.5976 4.47115L12.6475 4.46803V4.46803L12.5976 4.47115ZM12.4926 4.16815L12.5355 4.14258L12.4926 4.16815ZM12.2827 3.90151L12.247 3.93659L12.247 3.93659L12.2827 3.90151ZM12.0284 3.68941L12.0006 3.73099L12.0284 3.68941ZM11.7689 3.56686L11.7576 3.61558L11.7689 3.56686ZM11.1878 3.52773L11.1895 3.5777L11.1878 3.52773ZM10.8758 3.55734L10.8843 3.60661L10.8843 3.60661L10.8758 3.55734ZM10.8183 3.5685L10.7704 3.55403L10.7458 3.63541L10.8289 3.61735L10.8183 3.5685ZM10.8731 3.35872L10.8242 3.34867V3.34867L10.8731 3.35872ZM10.8908 3.18457L10.9407 3.18145V3.18145L10.8908 3.18457ZM10.7768 2.85555L10.8198 2.82999V2.82999L10.7768 2.85555ZM10.5489 2.56602L10.5133 2.60109L10.5489 2.56602ZM10.2729 2.33571L10.3007 2.29413L10.2729 2.33571ZM9.99117 2.20263L10.0024 2.15391L9.99117 2.20263ZM9.36036 2.16014L9.36208 2.21011L9.36036 2.16014ZM9.0217 2.19229L9.01318 2.14302L9.0217 2.19229ZM8.92195 2.21314L8.87303 2.20283L8.85653 2.28113L8.93414 2.26163L8.92195 2.21314ZM8.92509 2.19826L8.97401 2.20857L8.97407 2.20831L8.92509 2.19826ZM8.94276 2.02411L8.89285 2.02723L8.94276 2.02411ZM8.82874 1.69509L8.78577 1.72066L8.82874 1.69509ZM8.60088 1.40556L8.63652 1.37049V1.37049L8.60088 1.40556ZM8.32485 1.17524L8.35263 1.13367H8.35263L8.32485 1.17524ZM8.04312 1.04217L8.03188 1.09089L8.04312 1.04217ZM7.4123 0.999683L7.41058 0.949713L7.4123 0.999683ZM7.07365 1.03183L7.06513 0.982562L7.07365 1.03183ZM9.80766 6.08274L9.76157 6.06335L9.75773 6.07248L9.75766 6.08239L9.80766 6.08274ZM10.1966 5.15503L10.152 5.13209L10.1504 5.13576L10.1966 5.15503ZM9.77992 6.24061L9.82788 6.25476L9.77992 6.24061ZM10.7691 7.35036L10.7842 7.39804L10.797 7.39398L10.8061 7.38404L10.7691 7.35036ZM11.8514 5.59814L11.8047 5.58018L11.8514 5.59814ZM11.9858 5.29584L12.0311 5.31691L12.0312 5.3168L11.9858 5.29584ZM11.9858 5.29583L11.9404 5.27476L11.9404 5.27487L11.9858 5.29583ZM12.1415 4.935L12.0936 4.92052V4.92052L12.1415 4.935ZM12.1937 4.7859L12.2407 4.80289V4.80289L12.1937 4.7859ZM12.2629 4.58271L12.3119 4.59276V4.59276L12.2629 4.58271ZM12.2638 4.46754L12.214 4.47227L12.214 4.47269L12.2638 4.46754ZM12.2629 4.45837L12.213 4.46149L12.2131 4.46309L12.2629 4.45837ZM12.262 4.43335H12.212L12.212 4.4344L12.262 4.43335ZM12.262 4.43331H12.312L12.312 4.43227L12.262 4.43331ZM12.2244 4.29258L12.1814 4.31816L12.2244 4.29258ZM12.1923 4.23466L12.2365 4.2112V4.2112L12.1923 4.23466ZM12.0922 4.08892L12.1278 4.05385L12.0922 4.08892ZM11.8928 3.92584L11.865 3.96742H11.865L11.8928 3.92584ZM11.7108 3.86253L11.7013 3.91161L11.7013 3.91162L11.7108 3.86253ZM11.6991 3.86024L11.6888 3.90917L11.6895 3.90932L11.6991 3.86024ZM11.6856 3.8574L11.6742 3.90611L11.6753 3.90633L11.6856 3.8574ZM11.6638 3.85233L11.6524 3.90102L11.6524 3.90103L11.6638 3.85233ZM11.2918 3.81595L11.2901 3.76598L11.2918 3.81595ZM11.1935 3.8173L11.1933 3.7673H11.1933L11.1935 3.8173ZM11.0017 3.8272L11.0102 3.87646L11.0017 3.8272ZM10.8566 3.87812L10.8314 3.83395L10.8244 3.83994L10.8566 3.87812ZM10.7738 3.96102L10.8155 3.98851V3.98851L10.7738 3.96102ZM10.7415 4.02478L10.6957 4.00464L10.6953 4.00555L10.7415 4.02478ZM10.7415 4.02481L10.7872 4.04512L10.7876 4.04404L10.7415 4.02481ZM10.7414 4.02482L10.6958 4.00452L10.6957 4.0047L10.7414 4.02482ZM10.7116 4.08892L10.7562 4.11151L10.7562 4.1115L10.7116 4.08892ZM10.7028 4.1063L10.7474 4.12889L10.7474 4.12889L10.7028 4.1063ZM10.509 4.52054L10.4627 4.50157L10.509 4.52054ZM10.2641 5.02508L10.3075 5.0499L10.3084 5.04823L10.2641 5.02508ZM10.2641 5.02509L10.2207 5.00028L10.2203 5.00093L10.2641 5.02509ZM10.2641 5.02513L10.2203 5.00097L10.2197 5.00198L10.2641 5.02513ZM9.00797 6.76121L9.03243 6.80482L9.04667 6.79683L9.05345 6.78198L9.00797 6.76121ZM10.2558 3.98171L10.2091 3.96376V3.96376L10.2558 3.98171ZM7.58663 5.90479L7.54012 5.88644L7.53585 5.89726L7.5368 5.90885L7.58663 5.90479ZM8.50117 3.64651L8.4549 3.62754V3.62754L8.50117 3.64651ZM8.71948 3.15652L8.67486 3.13395L8.67486 3.13395L8.71948 3.15652ZM8.80515 3.0039L8.84692 3.03139V3.03139L8.80515 3.0039ZM8.83516 2.9633L8.87302 2.996L8.87397 2.99483L8.83516 2.9633ZM8.83679 2.96129L8.81257 2.91755L8.80409 2.92224L8.79798 2.92976L8.83679 2.96129ZM8.91388 2.84556L8.8712 2.81953L8.91388 2.84556ZM9.15744 2.53109L9.14893 2.48183L9.15744 2.53109ZM9.33536 2.52828L9.33293 2.57822L9.33536 2.52828ZM9.46829 2.53109L9.47001 2.58106L9.46829 2.53109ZM9.80633 2.57304L9.81994 2.52493L9.80633 2.57304ZM9.88275 2.59326L9.87151 2.64198L9.88275 2.59326ZM10.09 2.69688L10.0622 2.73846L10.0624 2.7386L10.09 2.69688ZM10.1238 2.71919L10.0962 2.76092L10.0963 2.76099L10.1238 2.71919ZM10.2972 2.85555L10.3329 2.82048V2.82048L10.2972 2.85555ZM10.3872 2.98517L10.4319 2.96278V2.96278L10.3872 2.98517ZM10.4216 3.04917L10.4645 3.02361V3.0236L10.4216 3.04917ZM10.4621 3.18884H10.5121L10.5121 3.18782L10.4621 3.18884ZM10.4621 3.18888H10.4121L10.4121 3.18991L10.4621 3.18888ZM10.463 3.21496L10.4131 3.21808V3.21808L10.463 3.21496ZM10.4636 3.22041L10.4141 3.22715L10.4141 3.22717L10.4636 3.22041ZM10.4643 3.22556L10.5139 3.21906L10.5138 3.21827L10.4643 3.22556ZM10.4643 3.22565L10.4147 3.23216L10.4153 3.23522L10.4643 3.22565ZM10.4644 3.22568L10.5139 3.21838L10.5134 3.2161L10.4644 3.22568ZM10.463 3.31857L10.512 3.32862V3.32862L10.463 3.31857ZM10.4553 3.35842L10.5044 3.36764L10.4553 3.35842ZM10.4216 3.50508L10.4694 3.51955V3.51955L10.4216 3.50508ZM7.33374 5.05934L7.28707 5.04139L7.33374 5.05934ZM5.96701 5.74415L5.94078 5.78672L5.94756 5.79089L5.9553 5.79276L5.96701 5.74415ZM7.81134 3.98891L7.76597 3.96787L7.76576 3.96835L7.81134 3.98891ZM7.81136 3.98886L7.85672 4.0099L7.85694 4.00942L7.81136 3.98886ZM8.49423 2.44823L8.54209 2.46271V2.46271L8.49423 2.44823ZM8.54186 2.31991L8.49535 2.30155V2.30155L8.54186 2.31991ZM8.59229 2.17883L8.54331 2.16878V2.16878L8.59229 2.17883ZM8.59302 2.03287L8.54319 2.037L8.54321 2.03726L8.59302 2.03287ZM8.59229 2.02411L8.54238 2.02723L8.54247 2.02825L8.59229 2.02411ZM8.54791 1.92087L8.58999 1.89387L8.58999 1.89387L8.54791 1.92087ZM8.51495 1.86799L8.47198 1.89355V1.89355L8.51495 1.86799ZM8.39841 1.72387L8.3629 1.75906L8.36297 1.75914L8.39841 1.72387ZM8.36989 1.69509L8.33425 1.73016L8.33438 1.73029L8.36989 1.69509ZM8.16266 1.5157L8.19043 1.47412L8.16266 1.5157ZM7.95543 1.41208L7.96667 1.36336L7.95543 1.41208ZM7.90955 1.40115L7.89742 1.44966L7.8978 1.44975L7.90955 1.40115ZM7.90954 1.40115L7.92166 1.35264L7.92132 1.35256L7.90954 1.40115ZM7.90949 1.40114L7.92127 1.35255L7.92124 1.35254L7.90949 1.40114ZM7.4788 1.34991L7.48052 1.39988L7.4788 1.34991ZM7.35206 1.34703L7.34791 1.39687L7.34939 1.39695L7.35206 1.34703ZM7.35206 1.34702L7.35621 1.29718L7.35474 1.2971L7.35206 1.34702ZM7.18867 1.34991L7.18016 1.30064L7.18867 1.34991ZM7.06434 1.41208L7.09518 1.45364L7.10349 1.44318L7.06434 1.41208ZM7.00217 1.47425L7.04393 1.50174L7.04393 1.50174L7.00217 1.47425ZM6.9832 1.50197L6.94218 1.47338L6.94218 1.47338L6.9832 1.50197ZM6.91779 1.60906L6.87318 1.58649L6.91779 1.60906ZM6.81867 1.86238L6.77133 1.84606L6.77059 1.84865L6.81867 1.86238ZM6.81866 1.86239L6.86625 1.87783L6.86674 1.87613L6.81866 1.86239ZM6.81866 1.86241L6.86593 1.87871L6.86622 1.87783L6.81866 1.86241ZM6.73277 2.09594L6.6865 2.07698L6.73277 2.09594ZM6.45295 2.90448L6.50039 2.92029L6.50062 2.91958L6.45295 2.90448ZM6.45294 2.9045L6.4055 2.88868L6.40528 2.8894L6.45294 2.9045ZM6.37938 3.13429L6.33187 3.11872L6.31713 3.16366L6.36119 3.18087L6.37938 3.13429ZM6.77507 3.27721L6.78488 3.22818H6.78488L6.77507 3.27721ZM7.10664 3.67095L7.05814 3.68307L7.10664 3.67095ZM6.77507 4.45842L6.80708 4.49684L6.77507 4.45842ZM5.40735 4.87288L5.42109 4.82481L5.40735 4.87288ZM4.16397 4.45842L4.18086 4.41136L4.14161 4.50315L4.16397 4.45842ZM4.39093 4.9765L4.34497 4.9568L4.39093 4.9765ZM4.10055 5.24637L4.116 5.29392H4.116L4.10055 5.24637ZM4.03963 5.26662L4.02327 5.21937L4.03963 5.31662V5.26662ZM4.95144 5.37007L4.93846 5.41836L4.98075 5.42973L4.99759 5.38931L4.95144 5.37007ZM5.15867 4.87288L5.16736 4.82364L5.12793 4.81669L5.11252 4.85365L5.15867 4.87288ZM5.51097 4.93505L5.56057 4.94134L5.56656 4.89409L5.51966 4.88581L5.51097 4.93505ZM5.82181 5.66036L5.80324 5.70678L5.82181 5.66036ZM5.92573 5.71871L5.95348 5.67708L5.95206 5.6762L5.92573 5.71871ZM5.92574 5.71872L5.89798 5.76037L5.90002 5.76159L5.92574 5.71872ZM5.92576 5.71873L5.95352 5.67708L5.95148 5.67585L5.92576 5.71873ZM5.92577 5.71874L5.89802 5.76036L5.89954 5.7613L5.92577 5.71874ZM7.93557 14.6211V14.6711H7.96778L7.9811 14.6418L7.93557 14.6211ZM7.74906 14.6211L7.70765 14.6491L7.72252 14.6711H7.74906V14.6211ZM7.97702 12.3331L8.01675 12.3015L8.0099 12.2955L7.97702 12.3331ZM7.54974 11.9601L7.58262 11.9225L7.51065 11.9913L7.54974 11.9601ZM7.63764 13.1787L7.68762 13.1771L7.63764 13.1787ZM7.03664 14.6418L6.99523 14.6698L7.0101 14.6918H7.03664V14.6418ZM7.22315 14.6418V14.6918H7.25536L7.26868 14.6625L7.22315 14.6418ZM7.26459 12.3539L7.31459 12.3539L7.21531 12.3454L7.26459 12.3539ZM4.96011 0.466251C4.95203 0.473754 4.94957 0.475722 4.94718 0.477046L4.99562 0.564528C5.01038 0.556357 5.02142 0.545783 5.02815 0.539534L4.96011 0.466251ZM5.08722 0.405845C5.05203 0.411929 5.02565 0.421236 5.00445 0.43293C4.9832 0.44465 4.96937 0.457659 4.96011 0.466252L5.02815 0.539534C5.03695 0.531363 5.04311 0.525808 5.05275 0.520494C5.06243 0.515153 5.07783 0.508953 5.10426 0.504383L5.08722 0.405845ZM5.13716 0.396828C5.12077 0.399853 5.10438 0.402879 5.08722 0.405845L5.10426 0.504383C5.12206 0.501305 5.139 0.498178 5.15531 0.495166L5.13716 0.396828ZM5.35631 0.369917C5.26581 0.373037 5.20261 0.384745 5.13716 0.396828L5.15531 0.495166C5.22019 0.483189 5.27719 0.472705 5.35976 0.469858L5.35631 0.369917ZM5.79084 0.389386C5.66621 0.360624 5.57479 0.362383 5.35631 0.369917L5.35976 0.469858C5.57996 0.462264 5.65847 0.461468 5.76836 0.486825L5.79084 0.389386ZM6.07677 0.500143C6.03225 0.470407 5.97067 0.445316 5.9176 0.426871C5.8637 0.408135 5.81412 0.394758 5.79084 0.389386L5.76836 0.486825C5.78812 0.491385 5.83424 0.503764 5.88477 0.521328C5.93614 0.539182 5.98774 0.560932 6.02123 0.583299L6.07677 0.500143ZM6.13129 0.535139C6.11258 0.523367 6.09457 0.512033 6.07677 0.500143L6.02123 0.583299C6.04035 0.596072 6.05951 0.608124 6.07804 0.61978L6.13129 0.535139ZM6.31259 0.672434C6.25204 0.610907 6.189 0.571446 6.13129 0.535139L6.07804 0.61978C6.13634 0.656459 6.18997 0.690398 6.24132 0.742577L6.31259 0.672434ZM6.48571 0.88917C6.43642 0.806323 6.3883 0.749363 6.31259 0.672435L6.24132 0.742577C6.31373 0.816162 6.356 0.866736 6.39977 0.940303L6.48571 0.88917ZM6.49057 0.89733L6.4857 0.88916L6.39978 0.940313L6.40464 0.948482L6.49057 0.89733ZM6.56505 1.0774C6.56106 1.01362 6.53295 0.968512 6.49056 0.897326L6.40464 0.948486C6.45044 1.0254 6.46306 1.04869 6.46524 1.08364L6.56505 1.0774ZM6.56595 1.08578L6.56488 1.07538L6.46541 1.08566L6.46648 1.09605L6.56595 1.08578ZM6.56412 1.21491C6.57501 1.16185 6.5684 1.10711 6.56589 1.08522L6.46654 1.09662C6.46919 1.11964 6.47343 1.15941 6.46616 1.19481L6.56412 1.21491ZM6.52717 1.31426C6.54112 1.28326 6.55737 1.24782 6.56412 1.21491L6.46616 1.19481C6.46212 1.21451 6.45148 1.23879 6.43598 1.27321L6.52717 1.31426ZM6.4906 1.40584C6.49998 1.37481 6.51334 1.34497 6.52717 1.31426L6.43598 1.27321C6.42254 1.30307 6.40644 1.33869 6.39488 1.37689L6.4906 1.40584ZM6.34067 1.82014C6.399 1.66942 6.45331 1.52915 6.4906 1.40584L6.39488 1.37689C6.35891 1.49583 6.30615 1.63225 6.24741 1.78405L6.34067 1.82014ZM6.30723 1.90673L6.34068 1.8201L6.2474 1.78408L6.21394 1.87071L6.30723 1.90673ZM5.97061 2.64369C6.081 2.41993 6.21173 2.15502 6.30725 1.90667L6.21392 1.87077C6.12032 2.1141 5.99174 2.37483 5.88093 2.59945L5.97061 2.64369ZM5.97146 2.64189L5.97146 2.64188L5.88008 2.60126L5.88007 2.60128L5.97146 2.64189ZM5.83651 2.92068C5.87362 2.84031 5.91991 2.74646 5.97061 2.6437L5.88092 2.59946C5.83041 2.70186 5.78348 2.79698 5.74572 2.87875L5.83651 2.92068ZM5.28903 2.75041C5.45317 2.81696 5.61689 2.88333 5.77241 2.94608L5.80982 2.85335C5.6544 2.79063 5.49075 2.72429 5.3266 2.65774L5.28903 2.75041ZM5.28782 2.74992L5.28904 2.75042L5.32659 2.65774L5.32536 2.65724L5.28782 2.74992ZM5.2875 2.74979L5.28769 2.74987L5.32549 2.65729L5.32531 2.65722L5.2875 2.74979ZM5.28738 2.74974L5.28754 2.74981L5.32526 2.6572L5.3251 2.65713L5.28738 2.74974ZM5.28732 2.74972L5.28745 2.74977L5.32503 2.6571L5.3249 2.65705L5.28732 2.74972ZM5.28711 2.74964L5.28732 2.74972L5.32489 2.65705L5.32468 2.65696L5.28711 2.74964ZM4.38741 2.38703C4.65152 2.49196 4.96999 2.62107 5.28711 2.74964L5.32468 2.65696C5.00766 2.52844 4.68884 2.39918 4.42433 2.2941L4.38741 2.38703ZM4.44783 1.92646C4.41861 2.07706 4.39188 2.2145 4.35802 2.32604L4.45371 2.35509C4.48938 2.23757 4.51709 2.09452 4.546 1.94551L4.44783 1.92646ZM4.44755 1.92808L4.44755 1.92809L4.54629 1.94389L4.54629 1.94388L4.44755 1.92808ZM4.44777 1.92682L4.44776 1.92683L4.54608 1.94512L4.54608 1.94511L4.44777 1.92682ZM4.63501 1.20978C4.5433 1.43353 4.49282 1.69462 4.44784 1.92644L4.54601 1.94549C4.59141 1.71151 4.64028 1.46062 4.72754 1.24771L4.63501 1.20978ZM4.71776 0.952807C4.69489 1.03561 4.67097 1.12205 4.63501 1.20978L4.72754 1.24771C4.7661 1.15364 4.79145 1.06162 4.81415 0.979422L4.71776 0.952807ZM4.71692 0.956305L4.71692 0.956308L4.81498 0.97592L4.81498 0.975916L4.71692 0.956305ZM4.80245 0.705656C4.76578 0.778133 4.74205 0.864831 4.71776 0.952803L4.81415 0.979418C4.83918 0.888752 4.86042 0.812583 4.89168 0.750802L4.80245 0.705656ZM4.898 0.535903C4.8725 0.574648 4.83567 0.63999 4.80245 0.705656L4.89168 0.750802C4.92402 0.686874 4.95892 0.625224 4.98153 0.590883L4.898 0.535903ZM4.93193 0.490113C4.9271 0.495703 4.91564 0.509104 4.898 0.535903L4.98153 0.590883C4.99629 0.56845 5.00498 0.558524 5.00761 0.555478L4.93193 0.490113ZM4.9324 0.489576L4.9324 0.489577L5.00714 0.556014L5.00714 0.556012L4.9324 0.489576ZM4.9326 0.489257L4.93096 0.491264L5.00858 0.554323L5.01021 0.552317L4.9326 0.489257ZM6.7215 0.809465C6.7743 0.898197 6.81461 0.994085 6.82612 1.0892L6.92539 1.07719C6.91163 0.963385 6.86433 0.85395 6.80744 0.758333L6.7215 0.809465ZM6.50098 0.529441C6.58537 0.615193 6.66302 0.711174 6.7215 0.809465L6.80744 0.758333C6.74398 0.651678 6.66094 0.549421 6.57225 0.459298L6.50098 0.529441ZM6.23281 0.30563C6.32346 0.366173 6.41649 0.443588 6.50098 0.529441L6.57225 0.459298C6.48336 0.368969 6.38511 0.287096 6.28836 0.222474L6.23281 0.30563ZM5.96761 0.179694C6.0509 0.198915 6.14351 0.245981 6.23281 0.30563L6.28836 0.222474C6.19433 0.15967 6.09013 0.105341 5.99009 0.0822553L5.96761 0.179694ZM5.34976 0.138461C5.57907 0.130553 5.82148 0.145972 5.96761 0.179694L5.99009 0.0822552C5.83194 0.045759 5.57978 0.0304694 5.34631 0.0385201L5.34976 0.138461ZM5.0179 0.169907C5.11889 0.152447 5.23417 0.142447 5.34976 0.138461L5.34631 0.0385201C5.22766 0.0426116 5.10762 0.0529132 5.00086 0.0713687L5.0179 0.169907ZM4.75755 0.252976C4.82492 0.212558 4.9195 0.186917 5.0179 0.169907L5.00086 0.0713687C4.89934 0.0889208 4.78978 0.11702 4.7061 0.167227L4.75755 0.252976ZM4.65295 0.367126C4.68116 0.324267 4.71637 0.277687 4.75755 0.252976L4.7061 0.167227C4.64363 0.204712 4.59783 0.268975 4.56942 0.312146L4.65295 0.367126ZM4.55359 0.54336C4.58829 0.474768 4.62179 0.414466 4.65295 0.367126L4.56942 0.312146C4.5353 0.36398 4.49987 0.428036 4.46436 0.498214L4.55359 0.54336ZM4.32735 1.05069C4.40586 0.859156 4.48403 0.68085 4.55359 0.54336L4.46436 0.498214C4.39304 0.639182 4.31371 0.820306 4.23483 1.01276L4.32735 1.05069ZM3.91446 2.15103C4.01534 1.85977 4.1733 1.42655 4.32735 1.05069L4.23483 1.01276C4.07984 1.39088 3.92122 1.82596 3.81997 2.1183L3.91446 2.15103ZM3.79757 2.16468C3.81153 2.16879 3.82939 2.17457 3.85102 2.18197L3.88341 2.08736C3.86107 2.07971 3.84169 2.07343 3.82578 2.06875L3.79757 2.16468ZM2.52789 2.16124C2.57377 2.13778 2.65317 2.11831 2.75712 2.10518C2.85956 2.09225 2.98088 2.08605 3.10712 2.08646C3.36063 2.0873 3.62792 2.11479 3.79757 2.16468L3.82578 2.06875C3.64314 2.01503 3.36515 1.98732 3.10745 1.98646C2.97809 1.98604 2.85233 1.99236 2.74459 2.00597C2.63836 2.01938 2.54448 2.04045 2.48237 2.07219L2.52789 2.16124ZM1.02112 5.69474C1.01932 5.68217 1.01903 5.6586 1.02164 5.62258C1.02418 5.58748 1.02924 5.54338 1.03684 5.49123C1.05204 5.38699 1.07713 5.25247 1.11143 5.09704C1.18004 4.78624 1.28511 4.39363 1.42047 3.99529C1.55591 3.59671 1.72117 3.19389 1.90975 2.86186C2.09937 2.52802 2.30834 2.27345 2.52789 2.16124L2.48237 2.07219C2.23566 2.1983 2.01462 2.47475 1.8228 2.81247C1.62995 3.152 1.46234 3.56126 1.32579 3.96312C1.18916 4.3652 1.08312 4.76137 1.01378 5.07549C0.979122 5.23253 0.953532 5.36952 0.937889 5.4768C0.930072 5.53041 0.924671 5.57707 0.921899 5.61536C0.919194 5.65273 0.918739 5.68518 0.922124 5.70888L1.02112 5.69474ZM2.73954 8.61648C2.33193 7.95058 1.90649 7.25555 1.5801 6.70708C1.41688 6.43279 1.27867 6.19556 1.17993 6.01712C1.13053 5.92784 1.09129 5.8538 1.06381 5.79743C1.05005 5.76922 1.03951 5.74598 1.03217 5.72778C1.02438 5.70848 1.02162 5.69827 1.02112 5.69474L0.922124 5.70888C0.924467 5.72528 0.931315 5.74509 0.939429 5.7652C0.947987 5.78641 0.95964 5.81196 0.973921 5.84126C1.00251 5.8999 1.04271 5.97568 1.09243 6.06554C1.19195 6.24538 1.3308 6.48369 1.49416 6.75821C1.82094 7.30734 2.24674 8.00296 2.65425 8.66869L2.73954 8.61648ZM2.7398 8.61692L2.73977 8.61686L2.65402 8.66831L2.65406 8.66837L2.7398 8.61692ZM2.73936 8.61619L2.73933 8.61614L2.65453 8.66914L2.65456 8.66919L2.73936 8.61619ZM2.7394 8.61626L2.73936 8.61619L2.65456 8.66919L2.6546 8.66926L2.7394 8.61626ZM2.73821 8.61444L2.7382 8.61443L2.6558 8.67108L2.65581 8.67109L2.73821 8.61444ZM2.73942 8.61628L2.73941 8.61627L2.65461 8.66927L2.65462 8.66928L2.73942 8.61628ZM2.73863 8.61506L2.73862 8.61505L2.65542 8.67052L2.65543 8.67054L2.73863 8.61506ZM2.73964 8.61663L2.73961 8.6166L2.65445 8.669L2.65447 8.66904L2.73964 8.61663ZM4.08678 10.8867C4.07095 10.8418 4.019 10.7444 3.94357 10.6118C3.86694 10.4772 3.76322 10.3014 3.64056 10.0968C3.39521 9.68762 3.07343 9.16193 2.7397 8.61673L2.65441 8.66894C2.98822 9.21428 3.30974 9.73952 3.5548 10.1483C3.67734 10.3526 3.7806 10.5276 3.85665 10.6613C3.93389 10.797 3.98032 10.8855 3.99248 10.9199L4.08678 10.8867ZM3.46676 14.6442C3.59118 14.0809 3.77162 13.2181 3.90854 12.4607C3.97699 12.0821 4.03468 11.7292 4.06904 11.4529C4.08621 11.3148 4.09766 11.195 4.10163 11.1004C4.10361 11.0531 4.10376 11.0114 4.10168 10.9763C4.09966 10.9421 4.09535 10.9109 4.08678 10.8867L3.99248 10.9199C3.99634 10.9309 4 10.9509 4.00186 10.9822C4.00367 11.0127 4.00362 11.0508 4.00172 11.0962C3.99792 11.1869 3.98683 11.3037 3.96981 11.4405C3.93578 11.7141 3.87846 12.065 3.81014 12.4429C3.67351 13.1987 3.49337 14.0601 3.36911 14.6227L3.46676 14.6442ZM4.51626 14.5835H3.41794V14.6835H4.51626V14.5835ZM4.88134 10.849C4.89034 10.9056 4.8916 11.0069 4.88567 11.1447C4.87979 11.2813 4.86708 11.4499 4.84954 11.6389C4.81447 12.0169 4.76028 12.4747 4.70355 12.9174C4.64684 13.3601 4.58765 13.7873 4.54264 14.1038C4.52013 14.2621 4.50117 14.3926 4.48784 14.4837C4.48117 14.5292 4.47591 14.5648 4.47232 14.589C4.47053 14.6011 4.46915 14.6104 4.46822 14.6166C4.46775 14.6197 4.4674 14.6221 4.46716 14.6237C4.46705 14.6245 4.46696 14.6251 4.4669 14.6255C4.46687 14.6257 4.46685 14.6258 4.46683 14.6259C4.46682 14.626 4.46682 14.626 4.46681 14.626C4.46681 14.626 4.46681 14.626 4.51626 14.6335C4.56571 14.6409 4.56571 14.6408 4.56571 14.6408C4.56572 14.6408 4.56572 14.6408 4.56573 14.6407C4.56574 14.6406 4.56577 14.6405 4.5658 14.6403C4.56586 14.6398 4.56595 14.6392 4.56607 14.6385C4.5663 14.6369 4.56666 14.6345 4.56713 14.6314C4.56806 14.6251 4.56944 14.6158 4.57124 14.6037C4.57484 14.5794 4.58011 14.5437 4.58678 14.4981C4.60013 14.407 4.61911 14.2763 4.64164 14.1179C4.6867 13.8011 4.74595 13.3734 4.80274 12.9302C4.85952 12.487 4.91389 12.0278 4.94911 11.6481C4.96672 11.4583 4.9796 11.2879 4.98557 11.149C4.99149 11.0115 4.99087 10.901 4.9801 10.8333L4.88134 10.849ZM3.99866 9.64099C4.24256 9.94007 4.4584 10.2048 4.6167 10.4158C4.69587 10.5214 4.75992 10.6126 4.80565 10.6874C4.85255 10.764 4.87631 10.8174 4.88134 10.849L4.9801 10.8333C4.97166 10.7802 4.93794 10.712 4.89096 10.6352C4.84281 10.5565 4.77659 10.4624 4.69671 10.3558C4.53691 10.1428 4.31956 9.87627 4.07616 9.57779L3.99866 9.64099ZM1.7101 5.82529C1.70577 6.07859 1.79037 6.37188 1.93058 6.68435C2.07112 6.99758 2.26945 7.33421 2.49697 7.67535C2.95195 8.35753 3.52701 9.06263 3.99866 9.64099L4.07616 9.57779C3.6039 8.99868 3.03201 8.29734 2.58017 7.61986C2.35428 7.28117 2.15923 6.94966 2.02181 6.64341C1.88406 6.33641 1.80612 6.05888 1.81008 5.827L1.7101 5.82529ZM2.68897 2.83928C2.63695 2.86682 2.58458 2.91427 2.53309 2.9751C2.48117 3.03643 2.42803 3.1139 2.37506 3.20451C2.26911 3.38575 2.16203 3.62267 2.06572 3.89558C1.8731 4.44133 1.72187 5.13572 1.7101 5.82529L1.81008 5.827C1.82164 5.14982 1.9704 4.46613 2.16001 3.92886C2.25481 3.66026 2.35941 3.42942 2.46139 3.25498C2.51239 3.16775 2.56228 3.09539 2.60942 3.03971C2.65698 2.98352 2.6997 2.94675 2.73576 2.92766L2.68897 2.83928ZM3.34938 2.60581C3.1462 2.62789 2.85868 2.74943 2.68897 2.83928L2.73576 2.92766C2.90274 2.83926 3.1765 2.72518 3.36018 2.70522L3.34938 2.60581ZM4.28135 2.71136C4.10081 2.6556 3.96305 2.6184 3.82238 2.60074C3.68119 2.58301 3.53913 2.58519 3.34938 2.60581L3.36018 2.70522C3.54512 2.68513 3.67891 2.68351 3.80992 2.69996C3.94146 2.71647 4.07226 2.75144 4.25184 2.80691L4.28135 2.71136ZM6.55049 3.75452C6.52844 3.70412 6.48889 3.65613 6.43873 3.61054C6.38821 3.56463 6.32454 3.51901 6.25101 3.47389C6.104 3.38367 5.91343 3.29293 5.69994 3.20428C5.27275 3.0269 4.74759 2.85536 4.28135 2.71136L4.25184 2.80691C4.71767 2.95078 5.23903 3.12117 5.66159 3.29664C5.87299 3.38442 6.05812 3.47284 6.19871 3.55912C6.26898 3.60225 6.32709 3.64421 6.37147 3.68454C6.41621 3.7252 6.44466 3.76211 6.45888 3.7946L6.55049 3.75452ZM6.57053 4.04474C6.58149 4.00122 6.59215 3.96009 6.59139 3.91396C6.59062 3.86671 6.57819 3.81783 6.55049 3.75452L6.45888 3.7946C6.48342 3.8507 6.49093 3.88607 6.49141 3.91559C6.49191 3.94622 6.48513 3.97437 6.47356 4.02034L6.57053 4.04474ZM6.55362 4.11641C6.55926 4.08955 6.56508 4.06642 6.57053 4.04474L6.47356 4.02033C6.46812 4.04195 6.46185 4.06683 6.45575 4.09586L6.55362 4.11641ZM6.13266 4.45842C6.14377 4.50717 6.1438 4.50717 6.14382 4.50716C6.14383 4.50716 6.14385 4.50716 6.14387 4.50715C6.1439 4.50714 6.14394 4.50713 6.14399 4.50712C6.14408 4.5071 6.14419 4.50708 6.14431 4.50705C6.14457 4.50699 6.1449 4.50691 6.14531 4.50681C6.14612 4.50661 6.14722 4.50634 6.1486 4.50599C6.15136 4.50528 6.15523 4.50425 6.16007 4.50285C6.16974 4.50006 6.18332 4.49582 6.19968 4.48983C6.23229 4.4779 6.27648 4.45882 6.32285 4.43014C6.41533 4.37295 6.52033 4.27492 6.55362 4.11641L6.45575 4.09586C6.43005 4.21825 6.34904 4.29637 6.27025 4.3451C6.23098 4.36938 6.19323 4.38571 6.1653 4.39593C6.15139 4.40102 6.14006 4.40455 6.13238 4.40676C6.12854 4.40787 6.12563 4.40864 6.12377 4.40912C6.12285 4.40936 6.12219 4.40952 6.12181 4.40961C6.12162 4.40966 6.1215 4.40968 6.12146 4.4097C6.12143 4.4097 6.12143 4.4097 6.12144 4.4097C6.12145 4.4097 6.12146 4.40969 6.12148 4.40969C6.12149 4.40969 6.1215 4.40968 6.12151 4.40968C6.12152 4.40968 6.12154 4.40968 6.13266 4.45842ZM5.58734 4.67215L6.14686 4.50636L6.11845 4.41048L5.55893 4.57627L5.58734 4.67215ZM3.69079 4.02907L5.55686 4.67149L5.58941 4.57693L3.72335 3.93452L3.69079 4.02907ZM4.08647 4.8554L3.75391 3.96431L3.66023 3.99928L3.99279 4.89037L4.08647 4.8554ZM3.27937 5.45297L4.06784 4.91417L4.01142 4.8316L3.22295 5.3704L3.27937 5.45297ZM5.1857 6.0742C4.83631 5.84973 4.35404 5.67199 3.96212 5.55072C3.76558 5.48991 3.59066 5.44298 3.46485 5.41124C3.40193 5.39536 3.35126 5.38328 3.31626 5.37516C3.29876 5.37109 3.28518 5.36802 3.27595 5.36595C3.27133 5.36492 3.2678 5.36414 3.26541 5.36362C3.26421 5.36335 3.2633 5.36316 3.26268 5.36302C3.26237 5.36295 3.26213 5.3629 3.26197 5.36287C3.26189 5.36285 3.26183 5.36284 3.26178 5.36283C3.26176 5.36282 3.26174 5.36282 3.26173 5.36281C3.26171 5.36281 3.2617 5.36281 3.25116 5.41169C3.24062 5.46056 3.24062 5.46056 3.24062 5.46056C3.24063 5.46056 3.24064 5.46057 3.24065 5.46057C3.24068 5.46058 3.24073 5.46059 3.2408 5.4606C3.24093 5.46063 3.24114 5.46067 3.24142 5.46073C3.24198 5.46086 3.24283 5.46104 3.24396 5.46129C3.24623 5.46179 3.24964 5.46254 3.25413 5.46355C3.26311 5.46555 3.27643 5.46857 3.29364 5.47256C3.32809 5.48056 3.37814 5.4925 3.44039 5.5082C3.56491 5.53961 3.73808 5.58608 3.93256 5.64626C4.32268 5.76696 4.79417 5.94151 5.13165 6.15833L5.1857 6.0742ZM5.29968 6.14713L5.18562 6.07415L5.13172 6.15838L5.24578 6.23136L5.29968 6.14713ZM6.27167 6.90988C5.8812 6.51844 5.65166 6.37186 5.29964 6.14711L5.24582 6.23139C5.5955 6.45464 5.81797 6.59665 6.20087 6.9805L6.27167 6.90988ZM7.13502 8.42782C7.06174 8.04636 6.98301 7.80215 6.85196 7.58431C6.72164 7.36768 6.54114 7.18001 6.27167 6.90988L6.20087 6.9805C6.47175 7.25205 6.64326 7.43139 6.76627 7.63586C6.88854 7.8391 6.96447 8.07009 7.03682 8.44669L7.13502 8.42782ZM7.35532 10.3023C7.40498 10.2965 7.40498 10.2965 7.40498 10.2965C7.40498 10.2965 7.40498 10.2965 7.40498 10.2965C7.40497 10.2964 7.40497 10.2964 7.40496 10.2963C7.40494 10.2962 7.40492 10.296 7.40488 10.2957C7.40481 10.2951 7.40471 10.2942 7.40458 10.2931C7.40432 10.2908 7.40392 10.2875 7.4034 10.2831C7.40236 10.2743 7.40082 10.2612 7.39881 10.2444C7.39478 10.2108 7.3889 10.1621 7.38142 10.1014C7.36646 9.98015 7.34514 9.81127 7.31969 9.62088C7.26883 9.2404 7.20132 8.77293 7.13502 8.42782L7.03682 8.44669C7.10254 8.7888 7.16974 9.25387 7.22057 9.63413C7.24597 9.8241 7.26724 9.99264 7.28217 10.1137C7.28963 10.1742 7.29551 10.2228 7.29951 10.2563C7.30152 10.2731 7.30305 10.286 7.30409 10.2948C7.30461 10.2992 7.305 10.3025 7.30526 10.3048C7.30539 10.3059 7.30549 10.3067 7.30556 10.3073C7.30559 10.3076 7.30562 10.3078 7.30563 10.3079C7.30564 10.308 7.30565 10.308 7.30565 10.3081C7.30565 10.3081 7.30566 10.3081 7.30566 10.3081C7.30566 10.3081 7.30566 10.3081 7.35532 10.3023ZM8.20349 8.78463L7.31239 10.2767L7.39825 10.328L8.28934 8.83591L8.20349 8.78463ZM8.49177 8.26993C8.4501 8.35374 8.37825 8.48208 8.31628 8.59036C8.2854 8.6443 8.25716 8.69294 8.23664 8.7281C8.22638 8.74568 8.21805 8.75988 8.21229 8.76967C8.20941 8.77457 8.20718 8.77837 8.20566 8.78094C8.20491 8.78223 8.20433 8.7832 8.20394 8.78386C8.20375 8.78419 8.2036 8.78443 8.20351 8.7846C8.20346 8.78468 8.20342 8.78474 8.2034 8.78478C8.20339 8.7848 8.20338 8.78481 8.20337 8.78482C8.20337 8.78483 8.20337 8.78483 8.20337 8.78483C8.20336 8.78484 8.20336 8.78484 8.24641 8.81027C8.28946 8.8357 8.28946 8.8357 8.28946 8.8357C8.28947 8.8357 8.28947 8.83569 8.28947 8.83568C8.28948 8.83567 8.28949 8.83566 8.2895 8.83564C8.28953 8.83559 8.28957 8.83553 8.28962 8.83544C8.28972 8.83527 8.28987 8.83501 8.29007 8.83468C8.29046 8.83401 8.29105 8.83301 8.29182 8.83171C8.29335 8.82911 8.29561 8.82527 8.29851 8.82034C8.30431 8.81046 8.31269 8.79618 8.323 8.77851C8.34362 8.74318 8.37201 8.69428 8.40307 8.64003C8.46495 8.53191 8.53817 8.40121 8.58131 8.31446L8.49177 8.26993ZM9.40691 7.79484C9.40074 7.74522 9.40072 7.74522 9.4007 7.74523C9.40069 7.74523 9.40067 7.74523 9.40065 7.74523C9.40061 7.74524 9.40056 7.74524 9.40051 7.74525C9.40039 7.74527 9.40023 7.74529 9.40003 7.74531C9.39963 7.74536 9.39908 7.74544 9.39837 7.74553C9.39695 7.74572 9.39491 7.746 9.39229 7.74638C9.38704 7.74713 9.37946 7.74827 9.36982 7.74987C9.35053 7.75305 9.32296 7.75805 9.28931 7.76536C9.22211 7.77995 9.13017 7.80386 9.03139 7.84119C8.83606 7.915 8.60349 8.04523 8.49177 8.26993L8.58131 8.31446C8.67584 8.12433 8.87846 8.00588 9.06674 7.93473C9.15977 7.89957 9.24676 7.87692 9.31052 7.86308C9.34236 7.85617 9.36828 7.85147 9.38612 7.84853C9.39503 7.84705 9.40192 7.84602 9.4065 7.84536C9.4088 7.84503 9.41051 7.8448 9.41162 7.84465C9.41217 7.84457 9.41257 7.84452 9.41282 7.84449C9.41294 7.84448 9.41302 7.84447 9.41306 7.84446C9.41308 7.84446 9.4131 7.84446 9.4131 7.84446C9.4131 7.84446 9.41309 7.84446 9.41309 7.84446C9.41308 7.84446 9.41307 7.84446 9.40691 7.79484ZM10.9404 7.74484H9.40691V7.84484H10.9404V7.74484ZM11.855 6.60261L10.9018 7.7631L10.979 7.82658L11.9323 6.66608L11.855 6.60261ZM11.7137 7.76341L11.9427 6.64437L11.8447 6.62432L11.6157 7.74337L11.7137 7.76341ZM10.9868 9.57494L11.7111 7.77203L11.6183 7.73475L10.894 9.53766L10.9868 9.57494ZM9.2769 11.332L10.9762 9.59123L10.9046 9.52137L9.20534 11.2621L9.2769 11.332ZM10.2848 10.9587L9.22788 11.2488L9.25436 11.3453L10.3112 11.0551L10.2848 10.9587ZM10.7828 14.5445L10.3476 11.0008L10.2484 11.013L10.6836 14.5567L10.7828 14.5445ZM11.1777 14.5843L10.7425 14.5014L10.7238 14.5997L11.159 14.6826L11.1777 14.5843ZM11.069 10.4554C11.0226 10.5069 10.9892 10.596 10.9635 10.7038C10.9372 10.814 10.9171 10.9527 10.9023 11.1114C10.8729 11.4291 10.8648 11.832 10.8744 12.2592C10.8936 13.1129 10.9838 14.0701 11.1197 14.645L11.217 14.622C11.0835 14.057 10.9935 13.1078 10.9743 12.2569C10.9648 11.8319 10.973 11.4331 11.0019 11.1207C11.0164 10.9643 11.036 10.8308 11.0608 10.727C11.0861 10.6207 11.1151 10.5536 11.1434 10.5223L11.069 10.4554ZM11.5434 9.44436C11.4042 9.87214 11.2954 10.2039 11.069 10.4554L11.1434 10.5223C11.3866 10.252 11.501 9.89775 11.6385 9.47531L11.5434 9.44436ZM11.5429 9.44608L11.5429 9.4461L11.6391 9.47357L11.6391 9.47355L11.5429 9.44608ZM11.5438 9.44324L11.5438 9.4433L11.6382 9.47633L11.6382 9.47627L11.5438 9.44324ZM11.8477 8.60421C11.7162 8.91357 11.6249 9.19415 11.5435 9.44428L11.6386 9.47523C11.72 9.22493 11.8101 8.94818 11.9397 8.64332L11.8477 8.60421ZM12.2995 5.35091C12.2821 5.7583 12.2386 6.40917 12.1644 7.04052C12.0899 7.6742 11.9852 8.28069 11.8477 8.60421L11.9397 8.64332C12.0836 8.30465 12.1894 7.68416 12.2637 7.0522C12.3383 6.41792 12.3819 5.76452 12.3994 5.35517L12.2995 5.35091ZM12.4827 4.81099C12.4621 4.87911 12.3844 5.10355 12.3023 5.3364L12.3966 5.36968C12.4784 5.13789 12.557 4.9108 12.5784 4.83995L12.4827 4.81099ZM12.5323 4.62147C12.5209 4.67693 12.5038 4.74113 12.4827 4.81099L12.5784 4.83995C12.6 4.76845 12.6181 4.70109 12.6303 4.64158L12.5323 4.62147ZM12.5477 4.47427C12.5503 4.51615 12.5434 4.56752 12.5323 4.62147L12.6303 4.64158C12.6418 4.58527 12.651 4.52343 12.6475 4.46803L12.5477 4.47427ZM12.4496 4.19372C12.5027 4.283 12.5418 4.37964 12.5477 4.47427L12.6475 4.46803C12.6402 4.35151 12.593 4.23915 12.5355 4.14258L12.4496 4.19372ZM12.247 3.93659C12.3246 4.01539 12.3959 4.10353 12.4496 4.19372L12.5355 4.14258C12.4769 4.04403 12.4002 3.94961 12.3183 3.86644L12.247 3.93659ZM12.0006 3.73099C12.0839 3.78659 12.1694 3.8577 12.247 3.93659L12.3183 3.86644C12.2362 3.78308 12.1455 3.7075 12.0562 3.64783L12.0006 3.73099ZM11.7576 3.61558C11.8337 3.63313 11.9185 3.67618 12.0006 3.73099L12.0562 3.64783C11.9694 3.58987 11.8729 3.53955 11.7801 3.51814L11.7576 3.61558ZM11.1895 3.5777C11.4006 3.57043 11.6235 3.58463 11.7576 3.61558L11.7801 3.51814C11.6339 3.48442 11.4013 3.47034 11.186 3.47776L11.1895 3.5777ZM10.8843 3.60661C10.9771 3.59057 11.0831 3.58137 11.1895 3.5777L11.186 3.47776C11.0766 3.48153 10.9659 3.49103 10.8673 3.50807L10.8843 3.60661ZM10.8289 3.61735C10.8472 3.61338 10.8658 3.60981 10.8843 3.60661L10.8673 3.50807C10.8475 3.51149 10.8276 3.51531 10.8077 3.51964L10.8289 3.61735ZM10.8242 3.34867C10.8118 3.40885 10.7933 3.47842 10.7704 3.55403L10.8662 3.58296C10.8895 3.50571 10.9089 3.43299 10.9221 3.36877L10.8242 3.34867ZM10.8409 3.18769C10.8438 3.23375 10.8362 3.28999 10.8242 3.34867L10.9221 3.36877C10.9346 3.30773 10.9444 3.24103 10.9407 3.18145L10.8409 3.18769ZM10.7338 2.88112C10.7917 2.97838 10.8344 3.08399 10.8409 3.18769L10.9407 3.18145C10.9329 3.05587 10.882 2.93453 10.8198 2.82999L10.7338 2.88112ZM10.5133 2.60109C10.5977 2.68685 10.6753 2.78283 10.7338 2.88112L10.8198 2.82999C10.7563 2.72333 10.6733 2.62107 10.5846 2.53095L10.5133 2.60109ZM10.2451 2.37728C10.3358 2.43783 10.4288 2.51524 10.5133 2.60109L10.5846 2.53095C10.4957 2.44062 10.3974 2.35875 10.3007 2.29413L10.2451 2.37728ZM9.97993 2.25135C10.0632 2.27057 10.1558 2.31763 10.2451 2.37728L10.3007 2.29413C10.2067 2.23132 10.1025 2.17699 10.0024 2.15391L9.97993 2.25135ZM9.36208 2.21011C9.59139 2.20221 9.8338 2.21763 9.97993 2.25135L10.0024 2.15391C9.84426 2.11741 9.5921 2.10212 9.35863 2.11017L9.36208 2.21011ZM9.03022 2.24156C9.13121 2.2241 9.24649 2.2141 9.36208 2.21011L9.35863 2.11017C9.23998 2.11426 9.11994 2.12457 9.01318 2.14302L9.03022 2.24156ZM8.93414 2.26163C8.96546 2.25376 8.9978 2.24716 9.03022 2.24156L9.01318 2.14302C8.97886 2.14896 8.944 2.15604 8.90977 2.16464L8.93414 2.26163ZM8.87616 2.18795L8.87303 2.20283L8.97088 2.22344L8.97401 2.20856L8.87616 2.18795ZM8.89285 2.02723C8.89573 2.07329 8.88815 2.12952 8.87611 2.18821L8.97407 2.20831C8.98659 2.14727 8.99638 2.08057 8.99266 2.02099L8.89285 2.02723ZM8.78577 1.72066C8.84364 1.81792 8.88637 1.92353 8.89285 2.02723L8.99266 2.02099C8.98481 1.89541 8.93391 1.77407 8.87171 1.66953L8.78577 1.72066ZM8.56525 1.44063C8.64964 1.52639 8.72729 1.62237 8.78577 1.72066L8.87171 1.66953C8.80825 1.56287 8.72521 1.46061 8.63652 1.37049L8.56525 1.44063ZM8.29708 1.21682C8.38772 1.27737 8.48076 1.35478 8.56525 1.44063L8.63652 1.37049C8.54763 1.28016 8.44938 1.19829 8.35263 1.13367L8.29708 1.21682ZM8.03188 1.09089C8.11516 1.11011 8.20778 1.15717 8.29708 1.21682L8.35263 1.13367C8.2586 1.07086 8.1544 1.01653 8.05436 0.993448L8.03188 1.09089ZM7.41403 1.04965C7.64333 1.04175 7.88574 1.05716 8.03188 1.09089L8.05436 0.993448C7.89621 0.956952 7.64405 0.941662 7.41058 0.949713L7.41403 1.04965ZM7.08217 1.0811C7.18316 1.06364 7.29843 1.05364 7.41403 1.04965L7.41058 0.949713C7.29193 0.953804 7.17188 0.964106 7.06513 0.982562L7.08217 1.0811ZM6.89369 1.12986C6.95039 1.10807 7.01584 1.09257 7.08217 1.0811L7.06513 0.982562C6.99546 0.994606 6.92297 1.01148 6.85782 1.03652L6.89369 1.12986ZM9.85375 6.10213C9.98504 5.78999 10.1202 5.46766 10.2427 5.17429L10.1504 5.13576C10.028 5.42903 9.89284 5.75128 9.76157 6.06335L9.85375 6.10213ZM9.82788 6.25476C9.84694 6.19014 9.85732 6.13151 9.85766 6.08309L9.75766 6.08239C9.75741 6.11832 9.74945 6.16719 9.73196 6.22646L9.82788 6.25476ZM10.7541 7.30269C10.4931 7.38521 10.1952 7.34325 9.99726 7.17456C9.80268 7.00876 9.69342 6.71041 9.82788 6.25476L9.73196 6.22646C9.58939 6.70963 9.70032 7.05292 9.9324 7.25068C10.1611 7.44554 10.4964 7.48904 10.7842 7.39804L10.7541 7.30269ZM11.8047 5.58018C11.7477 5.72826 11.5608 6.07354 11.3454 6.42905C11.1301 6.78442 10.8912 7.14221 10.7322 7.31669L10.8061 7.38404C10.9724 7.20153 11.2158 6.83598 11.4309 6.48087C11.6459 6.12591 11.8374 5.77357 11.898 5.61609L11.8047 5.58018ZM11.9404 5.27478C11.8879 5.38783 11.8346 5.50256 11.8047 5.58018L11.898 5.61609C11.9264 5.54242 11.9779 5.4314 12.0311 5.31691L11.9404 5.27478ZM11.9404 5.27487L11.9404 5.27489L12.0312 5.3168L12.0312 5.31678L11.9404 5.27487ZM12.0936 4.92052C12.0726 4.98994 12.0078 5.12986 11.9404 5.27476L12.0311 5.31689C12.0965 5.17613 12.1657 5.02757 12.1893 4.94948L12.0936 4.92052ZM12.1467 4.76892C12.1245 4.83028 12.1026 4.89088 12.0936 4.92052L12.1893 4.94948C12.1973 4.92309 12.2179 4.86592 12.2407 4.80289L12.1467 4.76892ZM12.2139 4.57265C12.212 4.58217 12.2037 4.60815 12.1905 4.64613C12.1778 4.68257 12.1621 4.72631 12.1467 4.76892L12.2407 4.80289C12.256 4.76046 12.2721 4.71607 12.285 4.67891C12.2973 4.6433 12.3083 4.6102 12.3119 4.59276L12.2139 4.57265ZM12.214 4.47269C12.2165 4.49641 12.2206 4.54002 12.2139 4.57265L12.3119 4.59276C12.3222 4.54255 12.3157 4.4835 12.3135 4.4624L12.214 4.47269ZM12.2131 4.46309L12.214 4.47227L12.3135 4.46282L12.3127 4.45365L12.2131 4.46309ZM12.212 4.4344C12.2122 4.44262 12.2124 4.45194 12.213 4.46149L12.3128 4.45525C12.3123 4.44811 12.3122 4.44087 12.312 4.43231L12.212 4.4344ZM12.212 4.43331V4.43335H12.312V4.43331H12.212ZM12.1814 4.31816C12.2108 4.36754 12.2113 4.39852 12.212 4.43435L12.312 4.43227C12.3111 4.39014 12.3099 4.33849 12.2673 4.26701L12.1814 4.31816ZM12.1482 4.25812C12.1581 4.2768 12.1688 4.29703 12.1814 4.31816L12.2673 4.26701C12.2562 4.24828 12.2465 4.23012 12.2365 4.2112L12.1482 4.25812ZM12.0565 4.124C12.1003 4.16849 12.1222 4.2092 12.1482 4.25812L12.2365 4.2112C12.2103 4.16185 12.1827 4.10961 12.1278 4.05385L12.0565 4.124ZM11.865 3.96742C11.9329 4.01275 11.9914 4.05782 12.0565 4.124L12.1278 4.05385C12.0568 3.9817 11.9927 3.93241 11.9206 3.88426L11.865 3.96742ZM11.7013 3.91162C11.7496 3.92093 11.8153 3.93421 11.865 3.96742L11.9206 3.88426C11.8515 3.83814 11.7658 3.82221 11.7203 3.81343L11.7013 3.91162ZM11.6895 3.90932L11.7013 3.91161L11.7204 3.81345L11.7086 3.81116L11.6895 3.90932ZM11.6753 3.90633L11.6888 3.90917L11.7094 3.81132L11.6959 3.80847L11.6753 3.90633ZM11.6524 3.90103L11.6742 3.9061L11.6969 3.8087L11.6751 3.80363L11.6524 3.90103ZM11.2936 3.86592C11.4759 3.85964 11.5567 3.87869 11.6524 3.90102L11.6751 3.80364C11.5745 3.78014 11.4843 3.75929 11.2901 3.76598L11.2936 3.86592ZM11.1936 3.8673C11.2265 3.86718 11.2605 3.86706 11.2936 3.86592L11.2901 3.76598C11.2589 3.76706 11.2264 3.76718 11.1933 3.7673L11.1936 3.8673ZM11.0102 3.87646C11.0596 3.86793 11.123 3.86755 11.1936 3.8673L11.1933 3.7673C11.1254 3.76754 11.0526 3.76766 10.9932 3.77793L11.0102 3.87646ZM10.8566 3.87812C10.8814 3.92155 10.8814 3.92156 10.8814 3.92156C10.8814 3.92156 10.8814 3.92157 10.8814 3.92157C10.8814 3.92157 10.8814 3.92158 10.8814 3.92158C10.8814 3.92159 10.8814 3.92159 10.8813 3.9216C10.8813 3.9216 10.8813 3.9216 10.8814 3.92159C10.8814 3.92157 10.8815 3.92151 10.8817 3.92142C10.882 3.92125 10.8825 3.92094 10.8833 3.92053C10.8849 3.91969 10.8873 3.91841 10.8905 3.91678C10.897 3.91353 10.9066 3.90896 10.9185 3.90396C10.9425 3.89388 10.9751 3.88254 11.0102 3.87646L10.9932 3.77793C10.9483 3.78568 10.9083 3.79981 10.8798 3.81173C10.8655 3.81774 10.8538 3.82331 10.8456 3.82744C10.8415 3.82951 10.8382 3.83123 10.8359 3.83248C10.8347 3.8331 10.8338 3.83361 10.8331 3.83398C10.8328 3.83417 10.8325 3.83432 10.8323 3.83444C10.8322 3.8345 10.8321 3.83455 10.832 3.8346C10.832 3.83462 10.832 3.83464 10.8319 3.83465C10.8319 3.83466 10.8319 3.83467 10.8319 3.83467C10.8319 3.83468 10.8319 3.83468 10.8319 3.83469C10.8319 3.83469 10.8319 3.83469 10.8566 3.87812ZM10.8155 3.98851C10.8212 3.97986 10.8374 3.96303 10.8564 3.94531C10.8651 3.93719 10.8733 3.92988 10.8793 3.9246C10.8823 3.92197 10.8848 3.91985 10.8865 3.91842C10.8873 3.9177 10.8879 3.91715 10.8884 3.91679C10.8886 3.91661 10.8887 3.91648 10.8888 3.9164C10.8889 3.91636 10.8889 3.91633 10.8889 3.91631C10.8889 3.9163 10.8889 3.9163 10.8889 3.9163C10.8889 3.9163 10.8889 3.9163 10.8889 3.9163C10.8889 3.9163 10.8889 3.9163 10.8889 3.9163C10.8889 3.9163 10.8889 3.9163 10.8566 3.87812C10.8244 3.83994 10.8244 3.83995 10.8244 3.83995C10.8244 3.83995 10.8244 3.83995 10.8244 3.83995C10.8243 3.83996 10.8243 3.83996 10.8243 3.83997C10.8243 3.83998 10.8243 3.84 10.8243 3.84001C10.8242 3.84005 10.8242 3.8401 10.8241 3.84016C10.824 3.84029 10.8238 3.84046 10.8235 3.84068C10.823 3.84113 10.8222 3.84177 10.8213 3.84259C10.8194 3.84422 10.8167 3.84655 10.8134 3.84943C10.8068 3.85518 10.7979 3.86319 10.7882 3.87218C10.7705 3.88869 10.7453 3.91331 10.732 3.93352L10.8155 3.98851ZM10.7872 4.04491C10.7984 4.01959 10.8054 4.00381 10.8155 3.98851L10.732 3.93352C10.7165 3.95703 10.7062 3.98066 10.6957 4.00465L10.7872 4.04491ZM10.7876 4.04404L10.7876 4.04401L10.6953 4.00555L10.6953 4.00558L10.7876 4.04404ZM10.7871 4.04513L10.7871 4.04512L10.6958 4.0045L10.6958 4.00452L10.7871 4.04513ZM10.7562 4.1115C10.7696 4.08494 10.7792 4.06309 10.7872 4.04495L10.6957 4.0047C10.6877 4.02275 10.6791 4.04241 10.667 4.06634L10.7562 4.1115ZM10.7474 4.12889L10.7562 4.11151L10.667 4.06633L10.6582 4.08371L10.7474 4.12889ZM10.5553 4.53951C10.6225 4.37562 10.6892 4.24387 10.7474 4.12889L10.6582 4.08371C10.5999 4.19872 10.5316 4.33362 10.4627 4.50157L10.5553 4.53951ZM10.3084 5.04823C10.3943 4.88372 10.4862 4.70807 10.5553 4.53951L10.4627 4.50157C10.3957 4.66507 10.3062 4.83652 10.2198 5.00192L10.3084 5.04823ZM10.3075 5.04989L10.3075 5.04988L10.2207 5.00027L10.2207 5.00028L10.3075 5.04989ZM10.3078 5.04928L10.3079 5.04924L10.2203 5.00093L10.2203 5.00097L10.3078 5.04928ZM10.241 5.17788C10.2628 5.13557 10.2854 5.09232 10.3084 5.04828L10.2197 5.00198C10.1968 5.04596 10.174 5.08951 10.1521 5.13217L10.241 5.17788ZM9.05345 6.78198C9.46071 5.89038 10.1948 4.27953 10.3024 3.99966L10.2091 3.96376C10.1029 4.23985 9.37097 5.84615 8.96249 6.74043L9.05345 6.78198ZM7.5368 5.90885C7.60086 6.69405 8.42155 7.14735 9.03243 6.80482L8.98352 6.71759C8.44411 7.02005 7.69536 6.62256 7.63647 5.90072L7.5368 5.90885ZM8.4549 3.62754C8.33046 3.93116 7.7968 5.23561 7.54012 5.88644L7.63315 5.92313C7.88953 5.27305 8.42291 3.96927 8.54743 3.66547L8.4549 3.62754ZM8.67486 3.13395C8.60865 3.26482 8.53269 3.43777 8.4549 3.62754L8.54743 3.66547C8.62484 3.47662 8.69964 3.30649 8.76409 3.17909L8.67486 3.13395ZM8.76339 2.97641C8.73785 3.0152 8.70805 3.06836 8.67486 3.13395L8.76409 3.17909C8.79648 3.11508 8.82435 3.06568 8.84692 3.03139L8.76339 2.97641ZM8.79732 2.93062C8.79249 2.93621 8.78103 2.94961 8.76339 2.97641L8.84692 3.03139C8.86168 3.00895 8.87037 2.99903 8.873 2.99598L8.79732 2.93062ZM8.79798 2.92976L8.79635 2.93177L8.87397 2.99483L8.8756 2.99282L8.79798 2.92976ZM8.8712 2.81953C8.85208 2.85087 8.8357 2.87773 8.82287 2.89747C8.81643 2.90739 8.81142 2.91468 8.80778 2.91949C8.80594 2.92192 8.80496 2.92303 8.80473 2.92329C8.80367 2.92442 8.80656 2.92088 8.81257 2.91755L8.86101 3.00503C8.86948 3.00034 8.87543 2.9941 8.87801 2.99133C8.88142 2.98766 8.88464 2.98364 8.88753 2.97983C8.89334 2.97215 8.89987 2.9625 8.90673 2.95195C8.92051 2.93073 8.93775 2.90245 8.95657 2.87159L8.8712 2.81953ZM9.14893 2.48183C9.13136 2.48486 9.11626 2.49334 9.10465 2.50153C9.09254 2.51007 9.0808 2.52076 9.06971 2.5322C9.04754 2.55507 9.02433 2.58474 9.00166 2.61647C8.95621 2.68008 8.90882 2.75784 8.8712 2.81953L8.95657 2.87159C8.99465 2.80917 9.04009 2.73469 9.08302 2.6746C9.10455 2.64448 9.12441 2.61944 9.14151 2.6018C9.15006 2.59299 9.157 2.58697 9.16228 2.58325C9.16805 2.57918 9.16905 2.57983 9.16596 2.58036L9.14893 2.48183ZM9.33779 2.47834C9.27513 2.47529 9.20729 2.47174 9.14893 2.48183L9.16596 2.58036C9.2112 2.57254 9.26694 2.57501 9.33293 2.57822L9.33779 2.47834ZM9.46657 2.48112C9.42509 2.48255 9.38208 2.48049 9.33779 2.47834L9.33293 2.57822C9.37647 2.58034 9.42367 2.58266 9.47001 2.58106L9.46657 2.48112ZM9.81994 2.52493C9.73357 2.50049 9.64298 2.47504 9.46657 2.48112L9.47001 2.58106C9.63197 2.57548 9.7114 2.59814 9.79272 2.62115L9.81994 2.52493ZM9.894 2.54454C9.86855 2.53867 9.84494 2.532 9.81994 2.52493L9.79272 2.62115C9.81744 2.62814 9.84333 2.63548 9.87151 2.64198L9.894 2.54454ZM10.1178 2.6553C10.038 2.60206 9.94586 2.55651 9.894 2.54454L9.87151 2.64198C9.90572 2.64988 9.98592 2.6875 10.0622 2.73846L10.1178 2.6553ZM10.1513 2.67747L10.1175 2.65516L10.0624 2.7386L10.0962 2.76092L10.1513 2.67747ZM10.3329 2.82048C10.2663 2.75285 10.2117 2.71713 10.1512 2.67739L10.0963 2.76099C10.1562 2.80026 10.203 2.8311 10.2616 2.89062L10.3329 2.82048ZM10.4319 2.96278C10.4097 2.91849 10.3893 2.87787 10.3329 2.82048L10.2616 2.89062C10.3073 2.93704 10.3221 2.96683 10.3425 3.00756L10.4319 2.96278ZM10.4645 3.0236C10.4511 3.00105 10.4415 2.98189 10.4319 2.96278L10.3425 3.00756C10.3521 3.0267 10.3631 3.04875 10.3786 3.07474L10.4645 3.0236ZM10.5121 3.18782C10.5117 3.16858 10.5113 3.14517 10.5048 3.11754C10.4982 3.08968 10.486 3.05974 10.4645 3.02361L10.3786 3.07474C10.3961 3.10417 10.4037 3.12463 10.4075 3.1405C10.4113 3.15659 10.4117 3.17023 10.4121 3.18986L10.5121 3.18782ZM10.5121 3.18888V3.18884H10.4121V3.18888H10.5121ZM10.5129 3.21184C10.5124 3.20395 10.5122 3.19638 10.5121 3.18786L10.4121 3.18991C10.4123 3.19819 10.4125 3.20778 10.4131 3.21808L10.5129 3.21184ZM10.5131 3.21367C10.5129 3.21185 10.5129 3.21148 10.5129 3.21183L10.4131 3.21808C10.4133 3.22148 10.4137 3.22476 10.4141 3.22715L10.5131 3.21367ZM10.5138 3.21827C10.5135 3.21634 10.5133 3.2149 10.5131 3.21366L10.4141 3.22717C10.4143 3.22904 10.4146 3.23104 10.4149 3.23285L10.5138 3.21827ZM10.5139 3.21915L10.5139 3.21906L10.4148 3.23206L10.4148 3.23215L10.5139 3.21915ZM10.5134 3.2161L10.5134 3.21607L10.4153 3.23522L10.4153 3.23525L10.5134 3.2161ZM10.512 3.32862C10.5225 3.27715 10.5167 3.23792 10.5138 3.21839L10.4149 3.23297C10.4173 3.24951 10.421 3.27463 10.414 3.30852L10.512 3.32862ZM10.5044 3.36764C10.5071 3.35351 10.5095 3.34064 10.512 3.32862L10.414 3.30852C10.4114 3.32152 10.4088 3.33525 10.4062 3.3492L10.5044 3.36764ZM10.4694 3.51955C10.4867 3.46241 10.4964 3.41035 10.5044 3.36764L10.4062 3.3492C10.3981 3.39214 10.3892 3.43928 10.3737 3.49061L10.4694 3.51955ZM10.3024 3.99966C10.374 3.8135 10.4255 3.66485 10.4694 3.51955L10.3737 3.49061C10.3306 3.63308 10.28 3.77938 10.2091 3.96376L10.3024 3.99966ZM7.28707 5.04139C7.17748 5.32629 7.0345 5.53167 6.83158 5.6455C6.62916 5.75906 6.35748 5.78682 5.97873 5.69554L5.9553 5.79276C6.34822 5.88746 6.6483 5.86298 6.88051 5.73272C7.11223 5.60273 7.26677 5.37271 7.3804 5.07729L7.28707 5.04139ZM7.76576 3.96835C7.53163 4.48732 7.31849 4.95971 7.28707 5.04139L7.3804 5.07729C7.41047 4.99912 7.62154 4.53121 7.85691 4.00947L7.76576 3.96835ZM7.766 3.96782L7.76598 3.96787L7.8567 4.00994L7.85672 4.00989L7.766 3.96782ZM8.44637 2.43376C8.44124 2.45071 8.4164 2.5109 8.37472 2.60716C8.33382 2.7016 8.27833 2.82713 8.21387 2.97168C8.08498 3.26077 7.92049 3.62536 7.76578 3.9683L7.85694 4.00942C8.01162 3.66655 8.1762 3.30173 8.3052 3.01241C8.3697 2.86776 8.42537 2.74184 8.46648 2.6469C8.50681 2.55378 8.53484 2.48667 8.54209 2.46271L8.44637 2.43376ZM8.49535 2.30155C8.47694 2.3482 8.457 2.39861 8.44637 2.43376L8.54209 2.46271C8.55123 2.43246 8.56927 2.38666 8.58837 2.33826L8.49535 2.30155ZM8.54331 2.16878C8.54133 2.17845 8.53564 2.19617 8.52648 2.22105C8.51764 2.24506 8.50668 2.27284 8.49535 2.30155L8.58837 2.33826C8.59958 2.30985 8.611 2.28091 8.62032 2.25559C8.62933 2.23113 8.63758 2.20687 8.64127 2.18888L8.54331 2.16878ZM8.54321 2.03726C8.5458 2.06655 8.55104 2.13112 8.54331 2.16878L8.64127 2.18888C8.65256 2.13388 8.645 2.0531 8.64283 2.02848L8.54321 2.03726ZM8.54247 2.02825L8.54319 2.037L8.64285 2.02874L8.64212 2.01998L8.54247 2.02825ZM8.50583 1.94788C8.53371 1.99132 8.54096 2.00439 8.54239 2.02723L8.6422 2.02099C8.63891 1.96833 8.61585 1.93416 8.58999 1.89387L8.50583 1.94788ZM8.47198 1.89355C8.48489 1.91524 8.4963 1.93302 8.50583 1.94788L8.58999 1.89387C8.58046 1.87902 8.56987 1.86251 8.55792 1.84242L8.47198 1.89355ZM8.36297 1.75914C8.41488 1.8113 8.43515 1.83166 8.47198 1.89355L8.55792 1.84242C8.51478 1.76992 8.48767 1.74267 8.43385 1.68859L8.36297 1.75914ZM8.33438 1.73029L8.3629 1.75906L8.43392 1.68867L8.4054 1.65989L8.33438 1.73029ZM8.13489 1.55727C8.20657 1.60515 8.26107 1.6558 8.33425 1.73016L8.40553 1.66002C8.33088 1.58417 8.2707 1.52773 8.19043 1.47412L8.13489 1.55727ZM7.94418 1.4608C7.9784 1.46869 8.05859 1.50631 8.13489 1.55727L8.19043 1.47412C8.11071 1.42087 8.01853 1.37533 7.96667 1.36336L7.94418 1.4608ZM7.8978 1.44975C7.91349 1.45355 7.929 1.4573 7.94418 1.4608L7.96667 1.36336C7.95208 1.35999 7.93708 1.35637 7.9213 1.35255L7.8978 1.44975ZM7.89741 1.44966L7.89742 1.44966L7.92168 1.35265L7.92166 1.35264L7.89741 1.44966ZM7.89771 1.44973L7.89776 1.44974L7.92132 1.35256L7.92127 1.35255L7.89771 1.44973ZM7.48052 1.39988C7.66491 1.39352 7.7905 1.42382 7.89774 1.44974L7.92124 1.35254C7.81207 1.32615 7.6756 1.29309 7.47707 1.29994L7.48052 1.39988ZM7.34939 1.39695C7.38938 1.3991 7.43361 1.4015 7.48052 1.39988L7.47707 1.29994C7.43522 1.30138 7.39525 1.29927 7.35474 1.2971L7.34939 1.39695ZM7.34791 1.39685L7.34791 1.39685L7.35622 1.2972L7.35621 1.2972L7.34791 1.39685ZM7.19719 1.39918C7.24205 1.39143 7.29025 1.39378 7.34938 1.39695L7.35474 1.2971C7.29806 1.29406 7.23815 1.29062 7.18016 1.30064L7.19719 1.39918ZM7.06434 1.41208C7.10349 1.44318 7.10348 1.44319 7.10346 1.44321C7.10346 1.44322 7.10344 1.44324 7.10343 1.44325C7.10341 1.44327 7.1034 1.44329 7.10338 1.44332C7.10334 1.44336 7.10331 1.4434 7.10328 1.44344C7.10322 1.44352 7.10316 1.44358 7.10312 1.44364C7.10302 1.44375 7.10296 1.44382 7.10294 1.44385C7.10289 1.44392 7.10297 1.44382 7.10318 1.44358C7.10361 1.4431 7.10458 1.44207 7.1061 1.44062C7.10914 1.43771 7.11436 1.43316 7.12191 1.42806C7.1369 1.41793 7.16143 1.40536 7.19719 1.39918L7.18016 1.30064C7.12902 1.30948 7.09138 1.328 7.06593 1.3452C7.05326 1.35376 7.04368 1.36194 7.03699 1.36834C7.03364 1.37154 7.031 1.37431 7.02905 1.37647C7.02807 1.37755 7.02726 1.37848 7.02662 1.37924C7.0263 1.37962 7.02602 1.37996 7.02578 1.38025C7.02566 1.38039 7.02555 1.38053 7.02545 1.38065C7.0254 1.38071 7.02535 1.38077 7.02531 1.38083C7.02528 1.38085 7.02526 1.38088 7.02524 1.38091C7.02523 1.38092 7.02522 1.38094 7.02521 1.38095C7.0252 1.38097 7.02518 1.38099 7.06434 1.41208ZM7.04393 1.50174C7.05066 1.49151 7.06237 1.47939 7.07437 1.46864C7.08002 1.46357 7.08513 1.45934 7.08879 1.4564C7.09061 1.45494 7.09205 1.45382 7.09298 1.45311C7.09345 1.45275 7.09379 1.45249 7.09399 1.45234C7.09408 1.45227 7.09415 1.45222 7.09417 1.4522C7.09418 1.45219 7.09419 1.45219 7.09418 1.4522C7.09418 1.4522 7.09417 1.4522 7.09416 1.45221C7.09416 1.45221 7.09416 1.45221 7.09415 1.45222C7.09415 1.45222 7.09414 1.45222 7.09414 1.45222C7.09414 1.45223 7.09413 1.45223 7.06434 1.41208C7.03454 1.37193 7.03453 1.37193 7.03453 1.37194C7.03453 1.37194 7.03452 1.37194 7.03452 1.37194C7.03451 1.37195 7.0345 1.37196 7.03449 1.37196C7.03447 1.37198 7.03445 1.37199 7.03443 1.37201C7.03438 1.37204 7.03433 1.37209 7.03426 1.37214C7.03413 1.37224 7.03395 1.37237 7.03374 1.37253C7.03332 1.37284 7.03275 1.37328 7.03204 1.37383C7.03062 1.37492 7.02865 1.37645 7.02625 1.37837C7.02148 1.3822 7.01491 1.38763 7.00761 1.39419C6.99367 1.40668 6.9743 1.42564 6.9604 1.44676L7.04393 1.50174ZM7.02421 1.53057C7.03071 1.52125 7.03741 1.51164 7.04393 1.50174L6.9604 1.44676C6.95474 1.45536 6.94881 1.46387 6.94218 1.47338L7.02421 1.53057ZM6.96241 1.63164C6.98524 1.58651 7.00513 1.55794 7.02421 1.53057L6.94218 1.47338C6.92253 1.50156 6.89931 1.53483 6.87318 1.58649L6.96241 1.63164ZM6.86593 1.87869C6.89892 1.78304 6.92732 1.70098 6.96241 1.63164L6.87318 1.58649C6.8344 1.66313 6.80379 1.75217 6.7714 1.84608L6.86593 1.87869ZM6.86674 1.87613L6.86674 1.87612L6.77059 1.84865L6.77059 1.84866L6.86674 1.87613ZM6.86622 1.87783L6.86622 1.87782L6.7711 1.84697L6.7711 1.84698L6.86622 1.87783ZM6.77903 2.1149C6.81338 2.03111 6.84083 1.95147 6.86593 1.87871L6.77139 1.84611C6.74621 1.91912 6.71962 1.99619 6.6865 2.07698L6.77903 2.1149ZM6.50062 2.91958C6.58172 2.66351 6.67552 2.36745 6.77903 2.1149L6.6865 2.07698C6.58114 2.33404 6.4861 2.6342 6.40528 2.88938L6.50062 2.91958ZM6.50038 2.92031L6.50038 2.92029L6.40551 2.88867L6.40551 2.88868L6.50038 2.92031ZM6.42689 3.14987C6.45005 3.07923 6.47469 3.00144 6.50061 2.91959L6.40528 2.8894C6.37932 2.97136 6.35484 3.04865 6.33187 3.11872L6.42689 3.14987ZM6.78488 3.22818C6.76709 3.22462 6.72332 3.21045 6.65456 3.18547C6.58741 3.16107 6.50004 3.12773 6.39757 3.08772L6.36119 3.18087C6.46393 3.22099 6.55215 3.25466 6.62041 3.27946C6.68707 3.30367 6.73853 3.32089 6.76527 3.32624L6.78488 3.22818ZM7.15515 3.65882C7.09436 3.41568 6.9773 3.26666 6.78488 3.22818L6.76527 3.32624C6.90442 3.35407 7.00221 3.45935 7.05814 3.68307L7.15515 3.65882ZM6.80708 4.49684C6.91583 4.40621 7.01292 4.24189 7.07732 4.08352C7.10988 4.00346 7.13501 3.92267 7.14934 3.85033C7.16337 3.77952 7.16823 3.71114 7.15515 3.65882L7.05814 3.68307C7.06578 3.71364 7.06442 3.76442 7.05125 3.8309C7.03838 3.89585 7.01534 3.97049 6.98469 4.04585C6.92268 4.19833 6.83326 4.34485 6.74307 4.42001L6.80708 4.49684ZM5.39361 4.92096C5.62676 4.98757 5.919 4.93125 6.17824 4.83698C6.43888 4.74221 6.67739 4.60491 6.80708 4.49684L6.74307 4.42001C6.62408 4.51917 6.39632 4.65127 6.14407 4.743C5.89041 4.83524 5.62312 4.88253 5.42109 4.82481L5.39361 4.92096ZM4.14707 4.50548C4.41637 4.60215 5.04366 4.82097 5.39361 4.92096L5.42109 4.82481C5.07474 4.72585 4.45037 4.50811 4.18086 4.41136L4.14707 4.50548ZM4.43689 4.9962C4.49581 4.85871 4.45122 4.72155 4.38839 4.61971C4.35659 4.56818 4.31885 4.52337 4.28344 4.48856C4.24875 4.45446 4.21369 4.42738 4.18633 4.4137L4.14161 4.50315C4.15569 4.51019 4.18215 4.52922 4.21333 4.55987C4.2438 4.58982 4.27626 4.62843 4.30328 4.67222C4.35808 4.76104 4.38552 4.86219 4.34497 4.9568L4.43689 4.9962ZM4.116 5.29392C4.18246 5.27233 4.2427 5.25338 4.29584 5.20998C4.34961 5.16605 4.39196 5.10103 4.43689 4.9962L4.34497 4.9568C4.30251 5.05589 4.26799 5.1036 4.23257 5.13253C4.19652 5.16198 4.15527 5.17602 4.0851 5.19881L4.116 5.29392ZM4.05599 5.31387C4.07728 5.3065 4.09708 5.30007 4.116 5.29392L4.0851 5.19881C4.06626 5.20493 4.0456 5.21165 4.02327 5.21937L4.05599 5.31387ZM4.96442 5.32179C4.66039 5.24005 4.28872 5.21662 4.03963 5.21662V5.31662C4.28485 5.31662 4.6466 5.33989 4.93846 5.41836L4.96442 5.32179ZM5.11252 4.85365L4.90529 5.35084L4.99759 5.38931L5.20482 4.89212L5.11252 4.85365ZM5.51966 4.88581L5.16736 4.82364L5.14998 4.92212L5.50228 4.98429L5.51966 4.88581ZM5.84038 5.61394C5.67254 5.5468 5.60044 5.38695 5.57181 5.23117C5.55768 5.15422 5.55485 5.08137 5.55562 5.02754C5.55601 5.00071 5.55729 4.97883 5.55845 4.96379C5.55903 4.95627 5.55958 4.95048 5.55998 4.94666C5.56018 4.94475 5.56034 4.94333 5.56044 4.94243C5.56049 4.94198 5.56053 4.94167 5.56055 4.94148C5.56056 4.94139 5.56057 4.94133 5.56057 4.94131C5.56057 4.9413 5.56058 4.94129 5.56057 4.9413C5.56057 4.9413 5.56057 4.94131 5.56057 4.94131C5.56057 4.94133 5.56057 4.94134 5.51097 4.93505C5.46136 4.92877 5.46136 4.92879 5.46136 4.92881C5.46136 4.92882 5.46135 4.92884 5.46135 4.92886C5.46135 4.9289 5.46134 4.92895 5.46133 4.92901C5.46132 4.92912 5.4613 4.92927 5.46128 4.92945C5.46123 4.92982 5.46117 4.93033 5.4611 4.93097C5.46095 4.93224 5.46075 4.93405 5.46051 4.93637C5.46003 4.941 5.4594 4.94765 5.45875 4.95607C5.45745 4.97291 5.45605 4.99691 5.45563 5.0261C5.4548 5.08431 5.4578 5.16403 5.47346 5.24924C5.50443 5.41778 5.58774 5.62059 5.80324 5.70678L5.84038 5.61394ZM5.95206 5.6762C5.90899 5.64952 5.87285 5.62692 5.84038 5.61394L5.80324 5.70678C5.82567 5.71576 5.85316 5.73257 5.8994 5.76121L5.95206 5.6762ZM5.95347 5.67711L5.95346 5.6771L5.89799 5.76031L5.898 5.76032L5.95347 5.67711ZM5.95348 5.67712L5.95347 5.67711L5.898 5.76032L5.89801 5.76032L5.95348 5.67712ZM5.95148 5.67585L5.95147 5.67584L5.90002 5.76159L5.90003 5.7616L5.95148 5.67585ZM5.9535 5.67713L5.95349 5.67712L5.89802 5.76033L5.89803 5.76033L5.9535 5.67713ZM5.95351 5.67713L5.9535 5.67713L5.89803 5.76033L5.89804 5.76034L5.95351 5.67713ZM5.99324 5.70158L5.952 5.67617L5.89954 5.7613L5.94078 5.78672L5.99324 5.70158ZM7.93557 14.5711H7.74906V14.6711H7.93557V14.5711ZM7.93792 12.3643C7.93703 12.3632 7.94111 12.3692 7.94621 12.3915C7.95076 12.4114 7.9549 12.4383 7.95848 12.4722C7.96562 12.5397 7.9701 12.6301 7.97232 12.7365C7.97675 12.9489 7.97209 13.221 7.9627 13.4924C7.95332 13.7636 7.93926 14.0334 7.92496 14.2409C7.91781 14.3446 7.91063 14.4325 7.90398 14.497C7.90065 14.5294 7.8975 14.5554 7.89462 14.5744C7.89318 14.5839 7.89188 14.5912 7.89077 14.5963C7.88942 14.6026 7.88895 14.6028 7.89004 14.6004L7.9811 14.6418C7.98478 14.6337 7.98703 14.6243 7.98852 14.6174C7.99024 14.6094 7.99189 14.5999 7.9935 14.5893C7.99672 14.5681 8.00005 14.5403 8.00345 14.5073C8.01027 14.4412 8.01754 14.352 8.02473 14.2477C8.0391 14.039 8.05323 13.7681 8.06264 13.4958C8.07205 13.2237 8.07679 12.9495 8.0723 12.7344C8.07006 12.627 8.06551 12.5333 8.05792 12.4617C8.05414 12.4259 8.04949 12.3945 8.04369 12.3692C8.03844 12.3462 8.03061 12.3202 8.01611 12.302L7.93792 12.3643ZM7.51686 11.9978L7.94413 12.3708L8.0099 12.2955L7.58262 11.9225L7.51686 11.9978ZM7.68762 13.1771C7.6782 12.8812 7.66899 12.5918 7.65571 12.3684C7.64908 12.2568 7.64138 12.1606 7.63199 12.0879C7.62731 12.0516 7.62207 12.0201 7.61606 11.995C7.6107 11.9726 7.60291 11.9466 7.58883 11.929L7.51065 11.9913C7.50936 11.9897 7.51332 11.9953 7.5188 12.0182C7.52363 12.0384 7.52833 12.066 7.53281 12.1007C7.54175 12.1699 7.54929 12.2633 7.55589 12.3743C7.56906 12.5961 7.57823 12.8839 7.58767 13.1803L7.68762 13.1771ZM7.79047 14.5931C7.78727 14.5883 7.78104 14.5741 7.77399 14.5449C7.76734 14.5175 7.76103 14.4815 7.75513 14.4379C7.74332 14.3506 7.73358 14.236 7.72527 14.1032C7.70866 13.8378 7.69801 13.5034 7.68762 13.1771L7.58767 13.1803C7.59804 13.5061 7.60874 13.8422 7.62546 14.1095C7.63382 14.2431 7.64374 14.3604 7.65603 14.4513C7.66217 14.4966 7.66901 14.5363 7.6768 14.5685C7.68418 14.599 7.69367 14.6285 7.70765 14.6491L7.79047 14.5931ZM7.03664 14.6918H7.22315V14.5918H7.03664V14.6918ZM7.26459 12.3539C7.21531 12.3454 7.21531 12.3454 7.21531 12.3455C7.21531 12.3455 7.2153 12.3455 7.2153 12.3455C7.21528 12.3456 7.21527 12.3457 7.21525 12.3458C7.2152 12.3461 7.21514 12.3465 7.21505 12.347C7.21488 12.348 7.21462 12.3495 7.21428 12.3515C7.2136 12.3555 7.21259 12.3614 7.21129 12.3691C7.20869 12.3845 7.20488 12.4072 7.20009 12.436C7.19051 12.4938 7.17698 12.5765 7.16115 12.6763C7.12949 12.8759 7.08864 13.1441 7.05187 13.4185C7.01514 13.6927 6.98237 13.9739 6.96704 14.1992C6.95938 14.3116 6.95599 14.4113 6.95881 14.4897C6.96022 14.5288 6.96322 14.5637 6.96834 14.5929C6.97322 14.6205 6.98092 14.6487 6.99523 14.6698L7.07805 14.6138C7.07596 14.6107 7.0711 14.5998 7.06683 14.5755C7.06281 14.5527 7.06007 14.5227 7.05874 14.4861C7.0561 14.4128 7.05924 14.3171 7.06681 14.2059C7.08192 13.984 7.11434 13.7053 7.15099 13.4318C7.18761 13.1585 7.22833 12.8911 7.25991 12.6919C7.2757 12.5924 7.2892 12.51 7.29875 12.4524C7.30352 12.4236 7.3073 12.4011 7.3099 12.3858C7.31119 12.3781 7.31219 12.3722 7.31286 12.3683C7.3132 12.3663 7.31345 12.3648 7.31362 12.3638C7.31371 12.3633 7.31377 12.3629 7.31381 12.3627C7.31383 12.3626 7.31385 12.3625 7.31386 12.3624C7.31387 12.3624 7.31387 12.3624 7.31387 12.3623C7.31387 12.3623 7.31388 12.3623 7.26459 12.3539ZM7.26868 14.6625C7.2728 14.6534 7.27489 14.643 7.27614 14.636C7.27764 14.6276 7.27896 14.6176 7.28015 14.6064C7.28256 14.5841 7.28474 14.5549 7.28675 14.5202C7.29076 14.4506 7.29417 14.3567 7.29709 14.2471C7.30293 14.0279 7.30682 13.7444 7.30941 13.4641C7.312 13.1836 7.3133 12.9061 7.31395 12.6987C7.31427 12.595 7.31443 12.5088 7.31451 12.4485C7.31455 12.4184 7.31457 12.3947 7.31458 12.3786C7.31459 12.3705 7.31459 12.3644 7.31459 12.3602C7.31459 12.3581 7.31459 12.3565 7.31459 12.3555C7.31459 12.3549 7.31459 12.3545 7.31459 12.3543C7.31459 12.3541 7.31459 12.354 7.31459 12.354C7.31459 12.3539 7.31459 12.3539 7.31459 12.3539C7.31459 12.3539 7.31459 12.3539 7.26459 12.3539C7.21459 12.3539 7.21459 12.3539 7.21459 12.3539C7.21459 12.3539 7.21459 12.3539 7.21459 12.354C7.21459 12.354 7.21459 12.3541 7.21459 12.3543C7.21459 12.3545 7.21459 12.3549 7.21459 12.3555C7.21459 12.3565 7.21459 12.3581 7.21459 12.3602C7.21459 12.3643 7.21459 12.3705 7.21458 12.3785C7.21457 12.3946 7.21455 12.4183 7.21451 12.4484C7.21443 12.5086 7.21427 12.5947 7.21395 12.6984C7.2133 12.9057 7.212 13.183 7.20941 13.4631C7.20683 13.7434 7.20294 14.0261 7.19713 14.2445C7.19422 14.3537 7.19083 14.4464 7.18691 14.5144C7.18495 14.5485 7.18288 14.5758 7.18073 14.5957C7.17965 14.6057 7.17862 14.6132 7.17769 14.6185C7.17651 14.6251 7.17609 14.6245 7.17762 14.6212L7.26868 14.6625Z" fill="#E7E8EB"/>
</svg>
